<svg width="1050" height="173" viewBox="0 0 1050 173" fill="none" xmlns="http://www.w3.org/2000/svg">
<mask id="path-1-outside-1_27_3" maskUnits="userSpaceOnUse" x="-1" y="-1" width="1052" height="175" fill="black">
<rect fill="white" x="-1" y="-1" width="1052" height="175"/>
<path d="M96.1595 122.289C86.6776 129.874 74.529 133.667 59.7136 133.667C46.9131 133.667 36.0979 130.852 27.2679 125.222C18.4379 119.592 11.7414 111.77 7.17825 101.754C2.61511 91.7392 0.333539 80.1536 0.333539 66.9975C0.333539 53.8415 2.61511 42.2558 7.17825 32.2406C11.7414 22.2254 18.4379 14.4029 27.2679 8.77306C36.0979 3.14322 46.9131 0.3283 59.7136 0.3283C74.529 0.3283 86.6776 4.03215 96.1595 11.4398C105.641 18.8475 112.16 29.5739 115.716 43.6189L101.049 44.6856C98.2632 35.1445 93.4631 27.6775 86.648 22.2847C79.8329 16.8919 70.8548 14.1955 59.7136 14.1955C49.9355 14.1955 41.787 16.4178 35.2682 20.8624C28.8087 25.307 23.9196 31.4999 20.601 39.4409C17.3416 47.382 15.6823 56.5675 15.623 66.9975C15.5638 77.4276 17.1638 86.6131 20.4232 94.5542C23.6826 102.495 28.6013 108.688 35.1793 113.133C41.7574 117.577 49.9355 119.8 59.7136 119.8C70.8548 119.8 79.8329 117.074 86.648 111.621C93.4631 106.169 98.2632 98.7321 101.049 89.3095L115.716 90.3762C112.16 104.066 105.641 114.703 96.1595 122.289ZM195.852 127.267C188.978 131.533 180.8 133.667 171.318 133.667C161.718 133.667 153.51 131.504 146.695 127.178C139.88 122.852 134.635 116.866 130.961 109.221C127.287 101.577 125.449 92.8059 125.449 82.9093C125.449 72.8348 127.316 64.0048 131.05 56.4193C134.783 48.8339 140.057 42.9373 146.873 38.7298C153.747 34.4629 161.895 32.3295 171.318 32.3295C180.918 32.3295 189.126 34.4926 195.941 38.8187C202.815 43.0855 208.06 49.0413 211.675 56.686C215.349 64.2715 217.186 73.0126 217.186 82.9093C217.186 92.9837 215.349 101.843 211.675 109.488C208.001 117.074 202.727 123 195.852 127.267ZM148.561 109.844C153.717 116.54 161.303 119.888 171.318 119.888C181.57 119.888 189.215 116.451 194.252 109.577C199.349 102.703 201.897 93.8134 201.897 82.9093C201.897 71.7088 199.349 62.79 194.252 56.1527C189.156 49.4561 181.511 46.1078 171.318 46.1078C164.384 46.1078 158.666 47.6783 154.162 50.8191C149.658 53.9007 146.31 58.2268 144.117 63.7974C141.924 69.3087 140.828 75.6793 140.828 82.9093C140.828 94.1097 143.406 103.088 148.561 109.844ZM361.406 65.8419L361.317 131H346.916L347.005 68.7754C347.005 61.4862 344.99 55.7675 340.961 51.6192C336.99 47.4709 331.923 45.3967 325.76 45.3967C322.145 45.3967 318.678 46.2264 315.36 47.8857C312.041 49.545 309.315 52.1525 307.181 55.7082C305.107 59.2639 304.07 63.9159 304.07 69.6643L301.403 66.7309C301.226 59.8565 301.818 53.9007 303.181 48.8635C304.544 43.8263 307.626 39.8557 312.426 36.9519C317.286 33.9889 322.915 32.5073 329.316 32.5073C339.153 32.5073 346.946 35.5297 352.694 41.5743C358.502 47.5597 361.406 55.6489 361.406 65.8419ZM246.646 51.2636V131H232.156V34.9963H245.135V39.8854C245.135 41.7817 244.809 43.8263 244.157 46.0189C243.564 48.1524 242.823 49.9006 241.935 51.2636H246.646ZM304.07 61.3973L303.981 131H289.581L289.759 69.4865C289.759 62.0196 287.773 56.1527 283.803 51.8858C279.892 47.5597 274.706 45.3967 268.247 45.3967C261.787 45.3967 256.572 47.619 252.602 52.0636C248.631 56.449 246.646 62.2862 246.646 69.5754L241.757 64.953C241.757 58.7305 242.912 53.16 245.224 48.2413C247.594 43.3225 251.09 39.4705 255.713 36.6852C260.335 33.9 265.847 32.5073 272.247 32.5073C278.173 32.5073 283.269 33.6629 287.536 35.9741C291.862 38.2853 294.974 41.6336 296.87 46.0189C298.766 50.345 299.715 54.76 299.715 59.2639V61.3973H304.07ZM396.242 1.83947V17.3956H381.841V1.83947H396.242ZM396.242 34.9963V131H381.841V34.9963H396.242ZM501.972 78.0202V131H487.394V82.4648C487.394 77.5461 486.92 72.9237 485.972 68.5976C485.083 64.2122 483.572 60.3602 481.438 57.0416C479.364 53.6637 476.608 51.0265 473.171 49.1302C469.734 47.2338 465.467 46.2856 460.371 46.2856C456.104 46.2856 452.281 47.0264 448.904 48.5079C445.526 49.9895 442.651 52.1525 440.281 54.9971C437.911 57.8416 436.103 61.3677 434.859 65.5753C433.614 69.7828 432.992 74.6126 432.992 80.0647L425.88 77.4868C425.88 67.9457 427.184 59.8269 429.792 53.1303C432.399 46.4338 436.666 41.3373 442.592 37.8408C448.578 34.3444 455.571 32.5962 463.571 32.5962C469.556 32.5962 474.712 33.5148 479.038 35.3519C483.423 37.189 487.068 39.678 489.972 42.8188C492.935 45.9597 495.276 49.5154 496.994 53.4859C498.772 57.3972 500.046 61.4862 500.817 65.753C501.587 69.9606 501.972 74.0497 501.972 78.0202ZM432.903 53.3081V131H418.414V34.9963H431.392V41.4854C431.392 43.3225 431.036 45.3078 430.325 47.4412C429.673 49.5154 428.814 51.471 427.747 53.3081H432.903ZM533.46 82.3759C527.533 77.3979 524.57 70.1384 524.57 60.5973C524.57 51.7081 527.533 44.5078 533.46 38.9965C539.386 33.4259 547.86 30.6406 558.883 30.6406C570.083 30.6406 578.617 33.4259 584.484 38.9965C590.351 44.5078 593.284 51.9747 593.284 61.3973C593.284 70.4051 590.351 77.3979 584.484 82.3759C578.617 87.3539 570.083 89.8429 558.883 89.8429C547.86 89.8429 539.386 87.3539 533.46 82.3759ZM543.86 46.9079C540.127 50.108 538.26 54.7304 538.26 60.7751C538.26 66.5827 540.127 71.1162 543.86 74.3756C547.593 77.5757 552.571 79.1758 558.794 79.1758C565.55 79.1758 570.705 77.5757 574.261 74.3756C577.817 71.1162 579.595 66.8494 579.595 61.5751C579.595 54.9971 577.817 50.108 574.261 46.9079C570.705 43.7077 565.55 42.1077 558.794 42.1077C552.571 42.1077 547.593 43.7077 543.86 46.9079ZM522.97 162.646C514.733 156.364 510.436 147.238 510.081 135.267C509.844 127.029 512.037 120.007 516.659 114.199C522.111 107.384 529.726 104.836 539.504 106.555L540.127 104.599L533.993 101.488C539.089 98.7025 547.386 97.3098 558.883 97.3098C574.765 97.3098 586.884 100.806 595.24 107.799C603.596 114.792 607.774 124.244 607.774 136.156C607.774 147.534 603.596 156.364 595.24 162.646C586.884 168.987 574.765 172.157 558.883 172.157C543.178 172.157 531.208 168.987 522.97 162.646ZM533.548 115.711C527.504 120.096 524.481 126.526 524.481 135C524.481 142.823 527.504 149.016 533.548 153.579C539.652 158.201 548.097 160.512 558.883 160.512C570.202 160.512 578.765 158.201 584.573 153.579C590.44 149.016 593.373 143.208 593.373 136.156C593.373 126.911 590.44 120.096 584.573 115.711C578.765 111.325 570.202 109.132 558.883 109.132C548.097 109.132 539.652 111.325 533.548 115.711ZM558.883 80.6869V89.8429H548.749C546.734 89.8429 544.986 90.1392 543.504 90.7318C542.082 91.3244 541.371 92.2726 541.371 93.5763C541.371 94.8801 542.112 95.8283 543.593 96.4209C545.075 97.0135 546.793 97.3098 548.749 97.3098H558.883V106.288H552.749C545.756 106.288 540.067 105.31 535.682 103.354C531.297 101.399 529.104 98.1395 529.104 93.5763C529.104 88.5391 531.208 85.1316 535.415 83.3537C539.623 81.5759 545.401 80.6869 552.749 80.6869H558.883ZM588.128 41.841L590.351 47.0857L581.195 38.1964L583.062 35.4408C576.898 28.8035 575.358 23.4107 578.439 19.2624C581.58 15.1141 586.973 13.0399 594.618 13.0399H606.529V25.1292H595.506C590.41 25.1292 587.18 26.2256 585.817 28.4183C584.513 30.6109 585.284 35.0852 588.128 41.841ZM720.383 131.089C714.694 132.807 708.531 133.667 701.894 133.667C692.886 133.667 684.767 132.156 677.537 129.133C670.367 126.052 664.292 121.637 659.314 115.888C654.396 110.14 651.373 103.029 650.247 94.5542L665.448 93.7541C667.226 101.754 671.522 108.125 678.337 112.866C685.212 117.548 693.271 119.888 702.516 119.888C708.502 119.888 713.894 118.94 718.695 117.044C723.554 115.148 727.376 112.451 730.162 108.955C732.947 105.399 734.34 101.221 734.34 96.4209C734.34 93.3393 733.777 90.7022 732.651 88.5095C731.584 86.3168 730.132 84.4797 728.295 82.9982C726.517 81.4573 724.502 80.1832 722.25 79.1758C720.058 78.1683 717.835 77.309 715.583 76.5979L683.049 66.9975C679.315 65.8716 675.789 64.4789 672.471 62.8196C669.152 61.101 666.218 59.0269 663.67 56.5971C661.181 54.1081 659.196 51.1747 657.714 47.7968C656.233 44.4189 655.492 40.4484 655.492 35.8852C655.492 28.5368 657.418 22.1958 661.27 16.8623C665.181 11.5287 670.456 7.43968 677.093 4.59513C683.789 1.75058 691.375 0.357929 699.849 0.417186C708.383 0.47645 716.057 1.95799 722.872 4.86181C729.747 7.76562 735.495 12.0324 740.118 17.6623C744.74 23.2921 747.496 30.6109 748.385 39.6187L733.184 40.5076C732.532 34.8185 730.636 30.0183 727.495 26.1071C724.413 22.1958 720.413 19.2327 715.494 17.2178C710.635 15.2029 705.361 14.1955 699.672 14.1955C694.16 14.1362 689.242 15.0252 684.915 16.8623C680.589 18.6994 677.152 21.218 674.604 24.4181C672.056 27.559 670.782 31.1739 670.782 35.263C670.782 39.4113 671.937 42.7596 674.248 45.3078C676.56 47.7968 679.404 49.7524 682.782 51.1747C686.219 52.597 689.567 53.7822 692.827 54.7304L717.539 61.8418C720.265 62.6122 723.406 63.6789 726.961 65.0419C730.517 66.4049 733.984 68.3309 737.362 70.8199C740.799 73.2496 743.614 76.4794 745.807 80.5092C748.059 84.4797 749.185 89.5169 749.185 95.6209C749.185 101.725 747.97 107.147 745.54 111.888C743.17 116.57 739.821 120.54 735.495 123.8C731.169 127 726.132 129.43 720.383 131.089ZM828.307 127.267C821.433 131.533 813.255 133.667 803.773 133.667C794.172 133.667 785.965 131.504 779.15 127.178C772.335 122.852 767.09 116.866 763.416 109.221C759.741 101.577 757.904 92.8059 757.904 82.9093C757.904 72.8348 759.771 64.0048 763.505 56.4193C767.238 48.8339 772.512 42.9373 779.327 38.7298C786.202 34.4629 794.35 32.3295 803.773 32.3295C813.373 32.3295 821.581 34.4926 828.396 38.8187C835.27 43.0855 840.515 49.0413 844.13 56.686C847.804 64.2715 849.641 73.0126 849.641 82.9093C849.641 92.9837 847.804 101.843 844.13 109.488C840.456 117.074 835.181 123 828.307 127.267ZM781.016 109.844C786.172 116.54 793.758 119.888 803.773 119.888C814.025 119.888 821.67 116.451 826.707 109.577C831.803 102.703 834.352 93.8134 834.352 82.9093C834.352 71.7088 831.803 62.79 826.707 56.1527C821.611 49.4561 813.966 46.1078 803.773 46.1078C796.839 46.1078 791.12 47.6783 786.617 50.8191C782.113 53.9007 778.764 58.2268 776.572 63.7974C774.379 69.3087 773.283 75.6793 773.283 82.9093C773.283 94.1097 775.861 103.088 781.016 109.844ZM929.769 127.267C922.895 131.533 914.717 133.667 905.235 133.667C895.635 133.667 887.427 131.504 880.612 127.178C873.797 122.852 868.552 116.866 864.878 109.221C861.204 101.577 859.367 92.8059 859.367 82.9093C859.367 72.8348 861.233 64.0048 864.967 56.4193C868.7 48.8339 873.975 42.9373 880.79 38.7298C887.664 34.4629 895.812 32.3295 905.235 32.3295C914.835 32.3295 923.043 34.4926 929.858 38.8187C936.733 43.0855 941.977 49.0413 945.592 56.686C949.266 64.2715 951.103 73.0126 951.103 82.9093C951.103 92.9837 949.266 101.843 945.592 109.488C941.918 117.074 936.644 123 929.769 127.267ZM882.479 109.844C887.634 116.54 895.22 119.888 905.235 119.888C915.487 119.888 923.132 116.451 928.169 109.577C933.266 102.703 935.814 93.8134 935.814 82.9093C935.814 71.7088 933.266 62.79 928.169 56.1527C923.073 49.4561 915.428 46.1078 905.235 46.1078C898.301 46.1078 892.583 47.6783 888.079 50.8191C883.575 53.9007 880.227 58.2268 878.034 63.7974C875.841 69.3087 874.745 75.6793 874.745 82.9093C874.745 94.1097 877.323 103.088 882.479 109.844ZM1049.63 78.0202V131H1035.05V82.4648C1035.05 77.5461 1034.58 72.9237 1033.63 68.5976C1032.74 64.2122 1031.23 60.3602 1029.1 57.0416C1027.02 53.6637 1024.27 51.0265 1020.83 49.1302C1017.39 47.2338 1013.13 46.2856 1008.03 46.2856C1003.76 46.2856 999.941 47.0264 996.564 48.5079C993.186 49.9895 990.311 52.1525 987.941 54.9971C985.571 57.8416 983.763 61.3677 982.519 65.5753C981.274 69.7828 980.652 74.6126 980.652 80.0647L973.54 77.4868C973.54 67.9457 974.844 59.8269 977.452 53.1303C980.059 46.4338 984.326 41.3373 990.252 37.8408C996.238 34.3444 1003.23 32.5962 1011.23 32.5962C1017.22 32.5962 1022.37 33.5148 1026.7 35.3519C1031.08 37.189 1034.73 39.678 1037.63 42.8188C1040.59 45.9597 1042.94 49.5154 1044.65 53.4859C1046.43 57.3972 1047.71 61.4862 1048.48 65.753C1049.25 69.9606 1049.63 74.0497 1049.63 78.0202ZM980.563 53.3081V131H966.074V34.9963H979.052V41.4854C979.052 43.3225 978.696 45.3078 977.985 47.4412C977.333 49.5154 976.474 51.471 975.407 53.3081H980.563Z"/>
</mask>
<path d="M96.1595 122.289C86.6776 129.874 74.529 133.667 59.7136 133.667C46.9131 133.667 36.0979 130.852 27.2679 125.222C18.4379 119.592 11.7414 111.77 7.17825 101.754C2.61511 91.7392 0.333539 80.1536 0.333539 66.9975C0.333539 53.8415 2.61511 42.2558 7.17825 32.2406C11.7414 22.2254 18.4379 14.4029 27.2679 8.77306C36.0979 3.14322 46.9131 0.3283 59.7136 0.3283C74.529 0.3283 86.6776 4.03215 96.1595 11.4398C105.641 18.8475 112.16 29.5739 115.716 43.6189L101.049 44.6856C98.2632 35.1445 93.4631 27.6775 86.648 22.2847C79.8329 16.8919 70.8548 14.1955 59.7136 14.1955C49.9355 14.1955 41.787 16.4178 35.2682 20.8624C28.8087 25.307 23.9196 31.4999 20.601 39.4409C17.3416 47.382 15.6823 56.5675 15.623 66.9975C15.5638 77.4276 17.1638 86.6131 20.4232 94.5542C23.6826 102.495 28.6013 108.688 35.1793 113.133C41.7574 117.577 49.9355 119.8 59.7136 119.8C70.8548 119.8 79.8329 117.074 86.648 111.621C93.4631 106.169 98.2632 98.7321 101.049 89.3095L115.716 90.3762C112.16 104.066 105.641 114.703 96.1595 122.289ZM195.852 127.267C188.978 131.533 180.8 133.667 171.318 133.667C161.718 133.667 153.51 131.504 146.695 127.178C139.88 122.852 134.635 116.866 130.961 109.221C127.287 101.577 125.449 92.8059 125.449 82.9093C125.449 72.8348 127.316 64.0048 131.05 56.4193C134.783 48.8339 140.057 42.9373 146.873 38.7298C153.747 34.4629 161.895 32.3295 171.318 32.3295C180.918 32.3295 189.126 34.4926 195.941 38.8187C202.815 43.0855 208.06 49.0413 211.675 56.686C215.349 64.2715 217.186 73.0126 217.186 82.9093C217.186 92.9837 215.349 101.843 211.675 109.488C208.001 117.074 202.727 123 195.852 127.267ZM148.561 109.844C153.717 116.54 161.303 119.888 171.318 119.888C181.57 119.888 189.215 116.451 194.252 109.577C199.349 102.703 201.897 93.8134 201.897 82.9093C201.897 71.7088 199.349 62.79 194.252 56.1527C189.156 49.4561 181.511 46.1078 171.318 46.1078C164.384 46.1078 158.666 47.6783 154.162 50.8191C149.658 53.9007 146.31 58.2268 144.117 63.7974C141.924 69.3087 140.828 75.6793 140.828 82.9093C140.828 94.1097 143.406 103.088 148.561 109.844ZM361.406 65.8419L361.317 131H346.916L347.005 68.7754C347.005 61.4862 344.99 55.7675 340.961 51.6192C336.99 47.4709 331.923 45.3967 325.76 45.3967C322.145 45.3967 318.678 46.2264 315.36 47.8857C312.041 49.545 309.315 52.1525 307.181 55.7082C305.107 59.2639 304.07 63.9159 304.07 69.6643L301.403 66.7309C301.226 59.8565 301.818 53.9007 303.181 48.8635C304.544 43.8263 307.626 39.8557 312.426 36.9519C317.286 33.9889 322.915 32.5073 329.316 32.5073C339.153 32.5073 346.946 35.5297 352.694 41.5743C358.502 47.5597 361.406 55.6489 361.406 65.8419ZM246.646 51.2636V131H232.156V34.9963H245.135V39.8854C245.135 41.7817 244.809 43.8263 244.157 46.0189C243.564 48.1524 242.823 49.9006 241.935 51.2636H246.646ZM304.07 61.3973L303.981 131H289.581L289.759 69.4865C289.759 62.0196 287.773 56.1527 283.803 51.8858C279.892 47.5597 274.706 45.3967 268.247 45.3967C261.787 45.3967 256.572 47.619 252.602 52.0636C248.631 56.449 246.646 62.2862 246.646 69.5754L241.757 64.953C241.757 58.7305 242.912 53.16 245.224 48.2413C247.594 43.3225 251.09 39.4705 255.713 36.6852C260.335 33.9 265.847 32.5073 272.247 32.5073C278.173 32.5073 283.269 33.6629 287.536 35.9741C291.862 38.2853 294.974 41.6336 296.87 46.0189C298.766 50.345 299.715 54.76 299.715 59.2639V61.3973H304.07ZM396.242 1.83947V17.3956H381.841V1.83947H396.242ZM396.242 34.9963V131H381.841V34.9963H396.242ZM501.972 78.0202V131H487.394V82.4648C487.394 77.5461 486.92 72.9237 485.972 68.5976C485.083 64.2122 483.572 60.3602 481.438 57.0416C479.364 53.6637 476.608 51.0265 473.171 49.1302C469.734 47.2338 465.467 46.2856 460.371 46.2856C456.104 46.2856 452.281 47.0264 448.904 48.5079C445.526 49.9895 442.651 52.1525 440.281 54.9971C437.911 57.8416 436.103 61.3677 434.859 65.5753C433.614 69.7828 432.992 74.6126 432.992 80.0647L425.88 77.4868C425.88 67.9457 427.184 59.8269 429.792 53.1303C432.399 46.4338 436.666 41.3373 442.592 37.8408C448.578 34.3444 455.571 32.5962 463.571 32.5962C469.556 32.5962 474.712 33.5148 479.038 35.3519C483.423 37.189 487.068 39.678 489.972 42.8188C492.935 45.9597 495.276 49.5154 496.994 53.4859C498.772 57.3972 500.046 61.4862 500.817 65.753C501.587 69.9606 501.972 74.0497 501.972 78.0202ZM432.903 53.3081V131H418.414V34.9963H431.392V41.4854C431.392 43.3225 431.036 45.3078 430.325 47.4412C429.673 49.5154 428.814 51.471 427.747 53.3081H432.903ZM533.46 82.3759C527.533 77.3979 524.57 70.1384 524.57 60.5973C524.57 51.7081 527.533 44.5078 533.46 38.9965C539.386 33.4259 547.86 30.6406 558.883 30.6406C570.083 30.6406 578.617 33.4259 584.484 38.9965C590.351 44.5078 593.284 51.9747 593.284 61.3973C593.284 70.4051 590.351 77.3979 584.484 82.3759C578.617 87.3539 570.083 89.8429 558.883 89.8429C547.86 89.8429 539.386 87.3539 533.46 82.3759ZM543.86 46.9079C540.127 50.108 538.26 54.7304 538.26 60.7751C538.26 66.5827 540.127 71.1162 543.86 74.3756C547.593 77.5757 552.571 79.1758 558.794 79.1758C565.55 79.1758 570.705 77.5757 574.261 74.3756C577.817 71.1162 579.595 66.8494 579.595 61.5751C579.595 54.9971 577.817 50.108 574.261 46.9079C570.705 43.7077 565.55 42.1077 558.794 42.1077C552.571 42.1077 547.593 43.7077 543.86 46.9079ZM522.97 162.646C514.733 156.364 510.436 147.238 510.081 135.267C509.844 127.029 512.037 120.007 516.659 114.199C522.111 107.384 529.726 104.836 539.504 106.555L540.127 104.599L533.993 101.488C539.089 98.7025 547.386 97.3098 558.883 97.3098C574.765 97.3098 586.884 100.806 595.24 107.799C603.596 114.792 607.774 124.244 607.774 136.156C607.774 147.534 603.596 156.364 595.24 162.646C586.884 168.987 574.765 172.157 558.883 172.157C543.178 172.157 531.208 168.987 522.97 162.646ZM533.548 115.711C527.504 120.096 524.481 126.526 524.481 135C524.481 142.823 527.504 149.016 533.548 153.579C539.652 158.201 548.097 160.512 558.883 160.512C570.202 160.512 578.765 158.201 584.573 153.579C590.44 149.016 593.373 143.208 593.373 136.156C593.373 126.911 590.44 120.096 584.573 115.711C578.765 111.325 570.202 109.132 558.883 109.132C548.097 109.132 539.652 111.325 533.548 115.711ZM558.883 80.6869V89.8429H548.749C546.734 89.8429 544.986 90.1392 543.504 90.7318C542.082 91.3244 541.371 92.2726 541.371 93.5763C541.371 94.8801 542.112 95.8283 543.593 96.4209C545.075 97.0135 546.793 97.3098 548.749 97.3098H558.883V106.288H552.749C545.756 106.288 540.067 105.31 535.682 103.354C531.297 101.399 529.104 98.1395 529.104 93.5763C529.104 88.5391 531.208 85.1316 535.415 83.3537C539.623 81.5759 545.401 80.6869 552.749 80.6869H558.883ZM588.128 41.841L590.351 47.0857L581.195 38.1964L583.062 35.4408C576.898 28.8035 575.358 23.4107 578.439 19.2624C581.58 15.1141 586.973 13.0399 594.618 13.0399H606.529V25.1292H595.506C590.41 25.1292 587.18 26.2256 585.817 28.4183C584.513 30.6109 585.284 35.0852 588.128 41.841ZM720.383 131.089C714.694 132.807 708.531 133.667 701.894 133.667C692.886 133.667 684.767 132.156 677.537 129.133C670.367 126.052 664.292 121.637 659.314 115.888C654.396 110.14 651.373 103.029 650.247 94.5542L665.448 93.7541C667.226 101.754 671.522 108.125 678.337 112.866C685.212 117.548 693.271 119.888 702.516 119.888C708.502 119.888 713.894 118.94 718.695 117.044C723.554 115.148 727.376 112.451 730.162 108.955C732.947 105.399 734.34 101.221 734.34 96.4209C734.34 93.3393 733.777 90.7022 732.651 88.5095C731.584 86.3168 730.132 84.4797 728.295 82.9982C726.517 81.4573 724.502 80.1832 722.25 79.1758C720.058 78.1683 717.835 77.309 715.583 76.5979L683.049 66.9975C679.315 65.8716 675.789 64.4789 672.471 62.8196C669.152 61.101 666.218 59.0269 663.67 56.5971C661.181 54.1081 659.196 51.1747 657.714 47.7968C656.233 44.4189 655.492 40.4484 655.492 35.8852C655.492 28.5368 657.418 22.1958 661.27 16.8623C665.181 11.5287 670.456 7.43968 677.093 4.59513C683.789 1.75058 691.375 0.357929 699.849 0.417186C708.383 0.47645 716.057 1.95799 722.872 4.86181C729.747 7.76562 735.495 12.0324 740.118 17.6623C744.74 23.2921 747.496 30.6109 748.385 39.6187L733.184 40.5076C732.532 34.8185 730.636 30.0183 727.495 26.1071C724.413 22.1958 720.413 19.2327 715.494 17.2178C710.635 15.2029 705.361 14.1955 699.672 14.1955C694.16 14.1362 689.242 15.0252 684.915 16.8623C680.589 18.6994 677.152 21.218 674.604 24.4181C672.056 27.559 670.782 31.1739 670.782 35.263C670.782 39.4113 671.937 42.7596 674.248 45.3078C676.56 47.7968 679.404 49.7524 682.782 51.1747C686.219 52.597 689.567 53.7822 692.827 54.7304L717.539 61.8418C720.265 62.6122 723.406 63.6789 726.961 65.0419C730.517 66.4049 733.984 68.3309 737.362 70.8199C740.799 73.2496 743.614 76.4794 745.807 80.5092C748.059 84.4797 749.185 89.5169 749.185 95.6209C749.185 101.725 747.97 107.147 745.54 111.888C743.17 116.57 739.821 120.54 735.495 123.8C731.169 127 726.132 129.43 720.383 131.089ZM828.307 127.267C821.433 131.533 813.255 133.667 803.773 133.667C794.172 133.667 785.965 131.504 779.15 127.178C772.335 122.852 767.09 116.866 763.416 109.221C759.741 101.577 757.904 92.8059 757.904 82.9093C757.904 72.8348 759.771 64.0048 763.505 56.4193C767.238 48.8339 772.512 42.9373 779.327 38.7298C786.202 34.4629 794.35 32.3295 803.773 32.3295C813.373 32.3295 821.581 34.4926 828.396 38.8187C835.27 43.0855 840.515 49.0413 844.13 56.686C847.804 64.2715 849.641 73.0126 849.641 82.9093C849.641 92.9837 847.804 101.843 844.13 109.488C840.456 117.074 835.181 123 828.307 127.267ZM781.016 109.844C786.172 116.54 793.758 119.888 803.773 119.888C814.025 119.888 821.67 116.451 826.707 109.577C831.803 102.703 834.352 93.8134 834.352 82.9093C834.352 71.7088 831.803 62.79 826.707 56.1527C821.611 49.4561 813.966 46.1078 803.773 46.1078C796.839 46.1078 791.12 47.6783 786.617 50.8191C782.113 53.9007 778.764 58.2268 776.572 63.7974C774.379 69.3087 773.283 75.6793 773.283 82.9093C773.283 94.1097 775.861 103.088 781.016 109.844ZM929.769 127.267C922.895 131.533 914.717 133.667 905.235 133.667C895.635 133.667 887.427 131.504 880.612 127.178C873.797 122.852 868.552 116.866 864.878 109.221C861.204 101.577 859.367 92.8059 859.367 82.9093C859.367 72.8348 861.233 64.0048 864.967 56.4193C868.7 48.8339 873.975 42.9373 880.79 38.7298C887.664 34.4629 895.812 32.3295 905.235 32.3295C914.835 32.3295 923.043 34.4926 929.858 38.8187C936.733 43.0855 941.977 49.0413 945.592 56.686C949.266 64.2715 951.103 73.0126 951.103 82.9093C951.103 92.9837 949.266 101.843 945.592 109.488C941.918 117.074 936.644 123 929.769 127.267ZM882.479 109.844C887.634 116.54 895.22 119.888 905.235 119.888C915.487 119.888 923.132 116.451 928.169 109.577C933.266 102.703 935.814 93.8134 935.814 82.9093C935.814 71.7088 933.266 62.79 928.169 56.1527C923.073 49.4561 915.428 46.1078 905.235 46.1078C898.301 46.1078 892.583 47.6783 888.079 50.8191C883.575 53.9007 880.227 58.2268 878.034 63.7974C875.841 69.3087 874.745 75.6793 874.745 82.9093C874.745 94.1097 877.323 103.088 882.479 109.844ZM1049.63 78.0202V131H1035.05V82.4648C1035.05 77.5461 1034.58 72.9237 1033.63 68.5976C1032.74 64.2122 1031.23 60.3602 1029.1 57.0416C1027.02 53.6637 1024.27 51.0265 1020.83 49.1302C1017.39 47.2338 1013.13 46.2856 1008.03 46.2856C1003.76 46.2856 999.941 47.0264 996.564 48.5079C993.186 49.9895 990.311 52.1525 987.941 54.9971C985.571 57.8416 983.763 61.3677 982.519 65.5753C981.274 69.7828 980.652 74.6126 980.652 80.0647L973.54 77.4868C973.54 67.9457 974.844 59.8269 977.452 53.1303C980.059 46.4338 984.326 41.3373 990.252 37.8408C996.238 34.3444 1003.23 32.5962 1011.23 32.5962C1017.22 32.5962 1022.37 33.5148 1026.7 35.3519C1031.08 37.189 1034.73 39.678 1037.63 42.8188C1040.59 45.9597 1042.94 49.5154 1044.65 53.4859C1046.43 57.3972 1047.71 61.4862 1048.48 65.753C1049.25 69.9606 1049.63 74.0497 1049.63 78.0202ZM980.563 53.3081V131H966.074V34.9963H979.052V41.4854C979.052 43.3225 978.696 45.3078 977.985 47.4412C977.333 49.5154 976.474 51.471 975.407 53.3081H980.563Z" fill="#FFFEEA"/>
<path d="M96.1595 122.289L95.5107 121.478L95.5107 121.478L96.1595 122.289ZM27.2679 125.222L26.7096 126.098L26.7096 126.098L27.2679 125.222ZM7.17825 101.754L8.12324 101.324L8.12324 101.324L7.17825 101.754ZM7.17825 32.2406L6.23325 31.8101L7.17825 32.2406ZM27.2679 8.77306L26.7096 7.89744L26.7096 7.89744L27.2679 8.77306ZM96.1595 11.4398L95.5201 12.2582L95.5201 12.2582L96.1595 11.4398ZM115.716 43.6189L115.791 44.6546L117.026 44.5647L116.722 43.364L115.716 43.6189ZM101.049 44.6856L100.052 44.9766L100.287 45.7822L101.124 45.7213L101.049 44.6856ZM86.648 22.2847L86.0036 23.099L86.0036 23.099L86.648 22.2847ZM35.2682 20.8624L34.6832 20.0044L34.6796 20.0069L35.2682 20.8624ZM20.601 39.4409L19.6428 39.0405L19.6403 39.0466L20.601 39.4409ZM20.4232 94.5542L19.4625 94.9485L20.4232 94.5542ZM35.1793 113.133L34.5979 113.993L34.5979 113.993L35.1793 113.133ZM86.648 111.621L85.9993 110.811L85.9993 110.811L86.648 111.621ZM101.049 89.3095L101.124 88.2738L100.29 88.2131L100.053 89.0151L101.049 89.3095ZM115.716 90.3762L116.721 90.6373L117.034 89.4309L115.791 89.3405L115.716 90.3762ZM95.5107 121.478C86.2509 128.886 74.3467 132.628 59.7136 132.628V134.705C74.7113 134.705 87.1043 130.863 96.8082 123.099L95.5107 121.478ZM59.7136 132.628C47.0667 132.628 36.4557 129.848 27.8262 124.346L26.7096 126.098C35.7401 131.855 46.7595 134.705 59.7136 134.705V132.628ZM27.8262 124.346C19.1743 118.83 12.6076 111.166 8.12324 101.324L6.23325 102.185C10.8751 112.373 17.7016 120.354 26.7096 126.098L27.8262 124.346ZM8.12324 101.324C3.63254 91.4676 1.372 80.0336 1.372 66.9975H-0.704923C-0.704923 80.2736 1.59768 92.0108 6.23325 102.185L8.12324 101.324ZM1.372 66.9975C1.372 53.9614 3.63254 42.5274 8.12324 32.6712L6.23325 31.8101C1.59768 41.9843 -0.704923 53.7215 -0.704923 66.9975H1.372ZM8.12324 32.6712C12.6076 22.8288 19.1743 15.165 27.8262 9.64869L26.7096 7.89744C17.7016 13.6408 10.8751 21.6221 6.23325 31.8101L8.12324 32.6712ZM27.8262 9.64869C36.4557 4.14668 47.0667 1.36676 59.7136 1.36676V-0.710161C46.7595 -0.710161 35.7401 2.13977 26.7096 7.89744L27.8262 9.64869ZM59.7136 1.36676C74.3522 1.36676 86.2599 5.02361 95.5201 12.2582L96.7988 10.6215C87.0953 3.04068 74.7058 -0.710161 59.7136 -0.710161V1.36676ZM95.5201 12.2582C104.786 19.4968 111.198 30.0051 114.709 43.8737L116.722 43.364C113.122 29.1427 106.497 18.1983 96.7988 10.6215L95.5201 12.2582ZM115.64 42.5831L100.973 43.6498L101.124 45.7213L115.791 44.6546L115.64 42.5831ZM102.045 44.3946C99.2087 34.6775 94.2999 27.0154 87.2924 21.4704L86.0036 23.099C92.6262 28.3396 97.3178 35.6114 100.052 44.9766L102.045 44.3946ZM87.2924 21.4704C80.2476 15.8958 71.0219 13.157 59.7136 13.157V15.234C70.6877 15.234 79.4182 17.888 86.0036 23.099L87.2924 21.4704ZM59.7136 13.157C49.777 13.157 41.4118 15.4168 34.6832 20.0044L35.8532 21.7204C42.1622 17.4188 50.0939 15.234 59.7136 15.234V13.157ZM34.6796 20.0069C28.0398 24.5755 23.0306 30.9341 19.6428 39.0405L21.5591 39.8413C24.8087 32.0657 29.5776 26.0385 35.8569 21.7179L34.6796 20.0069ZM19.6403 39.0466C16.3207 47.1343 14.6444 56.4562 14.5846 66.9916L16.6615 67.0034C16.7201 56.6788 18.3625 47.6296 21.5617 39.8352L19.6403 39.0466ZM14.5846 66.9916C14.5247 77.5301 16.1411 86.8563 19.4625 94.9485L21.3839 94.1598C18.1865 86.3699 16.6028 77.325 16.6615 67.0034L14.5846 66.9916ZM19.4625 94.9485C22.793 103.063 27.8364 109.425 34.5979 113.993L35.7607 112.272C29.3662 107.952 24.5722 101.928 21.3839 94.1598L19.4625 94.9485ZM34.5979 113.993C41.3838 118.578 49.7766 120.838 59.7136 120.838V118.761C50.0943 118.761 42.1309 116.576 35.7607 112.272L34.5979 113.993ZM59.7136 120.838C71.0243 120.838 80.2517 118.068 87.2967 112.432L85.9993 110.811C79.4141 116.079 70.6852 118.761 59.7136 118.761V120.838ZM87.2967 112.432C94.298 106.831 99.2068 99.2034 102.044 89.6039L100.053 89.0151C97.3197 98.2607 92.6281 105.508 85.9993 110.811L87.2967 112.432ZM100.973 90.3452L115.64 91.4119L115.791 89.3405L101.124 88.2738L100.973 90.3452ZM114.711 90.1151C111.202 103.625 104.79 114.054 95.5107 121.478L96.8082 123.099C106.493 115.352 113.118 104.507 116.721 90.6373L114.711 90.1151ZM146.695 127.178L146.138 128.054L146.138 128.054L146.695 127.178ZM130.961 109.221L130.025 109.671L130.025 109.671L130.961 109.221ZM131.05 56.4193L130.118 55.9608L130.118 55.9608L131.05 56.4193ZM146.873 38.7298L147.418 39.6134L147.42 39.6121L146.873 38.7298ZM195.941 38.8187L195.385 39.6955L195.393 39.701L195.941 38.8187ZM211.675 56.686L210.736 57.13L210.74 57.1387L211.675 56.686ZM211.675 109.488L212.61 109.941L212.611 109.938L211.675 109.488ZM148.561 109.844L147.736 110.474L147.739 110.477L148.561 109.844ZM194.252 109.577L193.418 108.958L193.414 108.963L194.252 109.577ZM194.252 56.1527L193.426 56.7816L193.428 56.7851L194.252 56.1527ZM154.162 50.8191L154.748 51.6762L154.756 51.6709L154.162 50.8191ZM144.117 63.7974L145.082 64.1813L145.083 64.1778L144.117 63.7974ZM195.305 126.384C188.621 130.533 180.64 132.628 171.318 132.628V134.705C180.96 134.705 189.335 132.534 196.4 128.149L195.305 126.384ZM171.318 132.628C161.877 132.628 153.871 130.503 147.251 126.301L146.138 128.054C153.149 132.505 161.558 134.705 171.318 134.705V132.628ZM147.251 126.301C140.609 122.084 135.491 116.251 131.897 108.772L130.025 109.671C133.779 117.482 139.151 123.619 146.138 128.054L147.251 126.301ZM131.897 108.772C128.3 101.289 126.488 92.6761 126.488 82.9093H124.411C124.411 92.9358 126.273 101.865 130.025 109.671L131.897 108.772ZM126.488 82.9093C126.488 72.9636 128.33 64.2959 131.981 56.8779L130.118 55.9608C126.302 63.7137 124.411 72.706 124.411 82.9093H126.488ZM131.981 56.8779C135.634 49.4574 140.779 43.7126 147.418 39.6134L146.327 37.8461C139.336 42.1621 133.933 48.2103 130.118 55.9608L131.981 56.8779ZM147.42 39.6121C154.105 35.4632 162.056 33.368 171.318 33.368V31.2911C161.734 31.2911 153.389 33.4627 146.325 37.8475L147.42 39.6121ZM171.318 33.368C180.759 33.368 188.765 35.4935 195.385 39.6954L196.498 37.9419C189.487 33.4916 181.078 31.2911 171.318 31.2911V33.368ZM195.393 39.701C202.09 43.8575 207.203 49.6574 210.736 57.13L212.614 56.2421C208.917 48.4252 203.541 42.3135 196.489 37.9363L195.393 39.701ZM210.74 57.1387C214.335 64.5605 216.148 73.1422 216.148 82.9093H218.225C218.225 72.8829 216.363 63.9825 212.61 56.2333L210.74 57.1387ZM216.148 82.9093C216.148 92.8569 214.334 101.558 210.739 109.038L212.611 109.938C216.364 102.129 218.225 93.1105 218.225 82.9093H216.148ZM210.74 109.035C207.148 116.452 202.005 122.226 195.305 126.384L196.4 128.149C203.448 123.774 208.853 117.695 212.61 109.941L210.74 109.035ZM147.739 110.477C153.129 117.478 161.047 120.927 171.318 120.927V118.85C161.558 118.85 154.306 115.603 149.384 109.21L147.739 110.477ZM171.318 120.927C181.825 120.927 189.816 117.388 195.09 110.191L193.414 108.963C188.614 115.515 181.315 118.85 171.318 118.85V120.927ZM195.086 110.195C200.348 103.098 202.935 93.9746 202.935 82.9093H200.858C200.858 93.6522 198.349 102.307 193.418 108.958L195.086 110.195ZM202.935 82.9093C202.935 71.5571 200.352 62.3917 195.076 55.5202L193.428 56.7851C198.345 63.1882 200.858 71.8606 200.858 82.9093H202.935ZM195.078 55.5238C189.743 48.5138 181.759 45.0694 171.318 45.0694V47.1463C181.263 47.1463 188.568 50.3985 193.426 56.7816L195.078 55.5238ZM171.318 45.0694C164.228 45.0694 158.287 46.6764 153.568 49.9673L154.756 51.6709C159.044 48.6801 164.541 47.1463 171.318 47.1463V45.0694ZM153.575 49.9621C148.883 53.1723 145.412 57.6727 143.151 63.4171L145.083 64.1778C147.207 58.7809 150.432 54.6291 154.748 51.6762L153.575 49.9621ZM143.152 63.4135C140.901 69.0705 139.789 75.5758 139.789 82.9093H141.866C141.866 75.7829 142.947 69.5469 145.082 64.1813L143.152 63.4135ZM139.789 82.9093C139.789 94.265 142.404 103.487 147.736 110.474L149.387 109.214C144.408 102.689 141.866 93.9543 141.866 82.9093H139.789ZM361.406 65.8419L362.444 65.8433V65.8419H361.406ZM361.317 131V132.038H362.354L362.355 131.001L361.317 131ZM346.916 131L345.878 130.999L345.876 132.038H346.916V131ZM347.005 68.7754L348.044 68.7769V68.7754H347.005ZM340.961 51.6192L340.21 52.3372L340.216 52.3427L340.961 51.6192ZM307.181 55.7082L306.291 55.1739L306.284 55.185L307.181 55.7082ZM304.07 69.6643L303.302 70.3628L305.109 72.3504V69.6643H304.07ZM301.403 66.7309L300.365 66.7577L300.375 67.1437L300.635 67.4294L301.403 66.7309ZM303.181 48.8635L304.184 49.1347L304.184 49.1347L303.181 48.8635ZM312.426 36.9519L312.964 37.8405L312.967 37.8386L312.426 36.9519ZM352.694 41.5743L351.942 42.29L351.949 42.2975L352.694 41.5743ZM246.646 51.2636H247.684V50.2251H246.646V51.2636ZM246.646 131V132.038H247.684V131H246.646ZM232.156 131H231.118V132.038H232.156V131ZM232.156 34.9963V33.9578H231.118V34.9963H232.156ZM245.135 34.9963H246.173V33.9578H245.135V34.9963ZM244.157 46.0189L243.161 45.723L243.159 45.732L243.156 45.741L244.157 46.0189ZM241.935 51.2636L241.065 50.6963L240.017 52.3021H241.935V51.2636ZM304.07 61.3973L305.109 61.3986L305.11 60.3589H304.07V61.3973ZM303.981 131V132.038H305.018L305.02 131.001L303.981 131ZM289.581 131L288.542 130.997L288.539 132.038H289.581V131ZM289.759 69.4865L290.797 69.4895V69.4865H289.759ZM283.803 51.8858L283.032 52.5823L283.037 52.5878L283.043 52.5933L283.803 51.8858ZM252.602 52.0636L253.371 52.7606L253.376 52.7555L252.602 52.0636ZM246.646 69.5754L245.932 70.33L247.684 71.9863V69.5754H246.646ZM241.757 64.953H240.718V65.4003L241.043 65.7076L241.757 64.953ZM245.224 48.2413L244.288 47.7904L244.284 47.7996L245.224 48.2413ZM255.713 36.6852L255.177 35.7958L255.177 35.7958L255.713 36.6852ZM287.536 35.9741L287.042 36.8872L287.047 36.8901L287.536 35.9741ZM296.87 46.0189L295.917 46.4311L295.919 46.4359L296.87 46.0189ZM299.715 61.3973H298.676V62.4358H299.715V61.3973ZM360.367 65.8405L360.278 130.999L362.355 131.001L362.444 65.8433L360.367 65.8405ZM361.317 129.962H346.916V132.038H361.317V129.962ZM347.955 131.001L348.044 68.7769L345.967 68.7739L345.878 130.999L347.955 131.001ZM348.044 68.7754C348.044 61.2898 345.969 55.2849 341.705 50.8956L340.216 52.3427C344.011 56.2501 345.967 61.6826 345.967 68.7754H348.044ZM341.711 50.9011C337.529 46.532 332.183 44.3582 325.76 44.3582V46.4352C331.663 46.4352 336.451 48.4097 340.21 52.3372L341.711 50.9011ZM325.76 44.3582C321.979 44.3582 318.354 45.2274 314.895 46.9569L315.824 48.8145C319.002 47.2253 322.311 46.4352 325.76 46.4352V44.3582ZM314.895 46.9569C311.38 48.7146 308.514 51.4694 306.291 55.1739L308.072 56.2425C310.116 52.8356 312.702 50.3754 315.824 48.8145L314.895 46.9569ZM306.284 55.185C304.088 58.9502 303.032 63.8014 303.032 69.6643H305.109C305.109 64.0304 306.127 59.5776 308.078 56.2315L306.284 55.185ZM304.839 68.9658L302.172 66.0323L300.635 67.4294L303.302 70.3628L304.839 68.9658ZM302.442 66.704C302.266 59.9003 302.854 54.0497 304.184 49.1347L302.179 48.5923C300.783 53.7518 300.186 59.8127 300.365 66.7577L302.442 66.704ZM304.184 49.1347C305.471 44.3759 308.373 40.6174 312.964 37.8405L311.889 36.0634C306.879 39.0941 303.617 43.2766 302.179 48.5923L304.184 49.1347ZM312.967 37.8386C317.644 34.9867 323.082 33.5458 329.316 33.5458V31.4689C322.749 31.4689 316.927 32.991 311.885 36.0653L312.967 37.8386ZM329.316 33.5458C338.924 33.5458 346.425 36.4884 351.942 42.29L353.447 40.8587C347.467 34.571 339.382 31.4689 329.316 31.4689V33.5458ZM351.949 42.2975C357.529 48.0479 360.367 55.8554 360.367 65.8419H362.444C362.444 55.4425 359.475 47.0716 353.44 40.8512L351.949 42.2975ZM245.607 51.2636V131H247.684V51.2636H245.607ZM246.646 129.962H232.156V132.038H246.646V129.962ZM233.195 131V34.9963H231.118V131H233.195ZM232.156 36.0348H245.135V33.9578H232.156V36.0348ZM244.096 34.9963V39.8854H246.173V34.9963H244.096ZM244.096 39.8854C244.096 41.6634 243.79 43.6073 243.161 45.723L245.152 46.3149C245.827 44.0452 246.173 41.9001 246.173 39.8854H244.096ZM243.156 45.741C242.583 47.8062 241.879 49.4481 241.065 50.6963L242.804 51.8309C243.768 50.3531 244.546 48.4985 245.157 46.2969L243.156 45.741ZM241.935 52.3021H246.646V50.2251H241.935V52.3021ZM303.032 61.396L302.943 130.999L305.02 131.001L305.109 61.3986L303.032 61.396ZM303.981 129.962H289.581V132.038H303.981V129.962ZM290.619 131.003L290.797 69.4895L288.72 69.4835L288.542 130.997L290.619 131.003ZM290.797 69.4865C290.797 61.8335 288.758 55.6869 284.563 51.1784L283.043 52.5933C286.788 56.6184 288.72 62.2056 288.72 69.4865H290.797ZM284.573 51.1894C280.443 46.6207 274.965 44.3582 268.247 44.3582V46.4352C274.448 46.4352 279.341 48.4988 283.032 52.5823L284.573 51.1894ZM268.247 44.3582C261.519 44.3582 256.013 46.6867 251.827 51.3718L253.376 52.7555C257.132 48.5513 262.055 46.4352 268.247 46.4352V44.3582ZM251.832 51.3666C247.651 55.9847 245.607 62.0912 245.607 69.5754H247.684C247.684 62.4813 249.612 56.9132 253.371 52.7606L251.832 51.3666ZM247.359 68.8208L242.47 64.1984L241.043 65.7076L245.932 70.33L247.359 68.8208ZM242.795 64.953C242.795 58.8611 243.926 53.4447 246.163 48.6829L244.284 47.7996C241.899 52.8752 240.718 58.6 240.718 64.953H242.795ZM246.159 48.6921C248.443 43.9531 251.802 40.2545 256.249 37.5747L255.177 35.7958C250.379 38.6866 246.745 42.692 244.288 47.7904L246.159 48.6921ZM256.249 37.5747C260.682 34.9037 266 33.5458 272.247 33.5458V31.4689C265.693 31.4689 259.989 32.8962 255.177 35.7958L256.249 37.5747ZM272.247 33.5458C278.038 33.5458 282.957 34.6746 287.042 36.8872L288.031 35.061C283.582 32.6512 278.308 31.4689 272.247 31.4689V33.5458ZM287.047 36.8901C291.172 39.0938 294.116 42.2674 295.917 46.4311L297.823 45.6068C295.831 40.9998 292.553 37.4768 288.026 35.0582L287.047 36.8901ZM295.919 46.4359C297.76 50.6371 298.676 54.9105 298.676 59.2639H300.753C300.753 54.6095 299.772 50.053 297.821 45.602L295.919 46.4359ZM298.676 59.2639V61.3973H300.753V59.2639H298.676ZM299.715 62.4358H304.07V60.3589H299.715V62.4358ZM396.242 1.83947H397.28V0.801004H396.242V1.83947ZM396.242 17.3956V18.4341H397.28V17.3956H396.242ZM381.841 17.3956H380.803V18.4341H381.841V17.3956ZM381.841 1.83947V0.801004H380.803V1.83947H381.841ZM396.242 34.9963H397.28V33.9578H396.242V34.9963ZM396.242 131V132.038H397.28V131H396.242ZM381.841 131H380.803V132.038H381.841V131ZM381.841 34.9963V33.9578H380.803V34.9963H381.841ZM395.203 1.83947V17.3956H397.28V1.83947H395.203ZM396.242 16.3572H381.841V18.4341H396.242V16.3572ZM382.88 17.3956V1.83947H380.803V17.3956H382.88ZM381.841 2.87793H396.242V0.801004H381.841V2.87793ZM395.203 34.9963V131H397.28V34.9963H395.203ZM396.242 129.962H381.841V132.038H396.242V129.962ZM382.88 131V34.9963H380.803V131H382.88ZM381.841 36.0348H396.242V33.9578H381.841V36.0348ZM501.972 131V132.038H503.011V131H501.972ZM487.394 131H486.356V132.038H487.394V131ZM485.972 68.5976L484.954 68.8039L484.956 68.8119L484.957 68.8199L485.972 68.5976ZM481.438 57.0416L480.553 57.585L480.559 57.5941L480.565 57.6032L481.438 57.0416ZM473.171 49.1302L473.673 48.2209L473.673 48.2209L473.171 49.1302ZM448.904 48.5079L449.321 49.4589L449.321 49.4589L448.904 48.5079ZM440.281 54.9971L441.079 55.6619L441.079 55.6619L440.281 54.9971ZM434.859 65.5753L433.863 65.2807L433.863 65.2807L434.859 65.5753ZM432.992 80.0647L432.638 81.041L434.03 81.5457V80.0647H432.992ZM425.88 77.4868H424.842V78.215L425.527 78.4631L425.88 77.4868ZM429.792 53.1303L428.824 52.7535L428.824 52.7535L429.792 53.1303ZM442.592 37.8408L442.068 36.9442L442.065 36.9465L442.592 37.8408ZM479.038 35.3519L478.632 36.3077L478.637 36.3097L479.038 35.3519ZM489.972 42.8188L489.209 43.5238L489.216 43.5314L489.972 42.8188ZM496.994 53.4859L496.041 53.8984L496.045 53.907L496.049 53.9156L496.994 53.4859ZM500.817 65.753L499.795 65.9376L499.795 65.9401L500.817 65.753ZM432.903 53.3081H433.941V52.2697H432.903V53.3081ZM432.903 131V132.038H433.941V131H432.903ZM418.414 131H417.375V132.038H418.414V131ZM418.414 34.9963V33.9578H417.375V34.9963H418.414ZM431.392 34.9963H432.43V33.9578H431.392V34.9963ZM430.325 47.4412L429.34 47.1128L429.337 47.1213L429.334 47.1299L430.325 47.4412ZM427.747 53.3081L426.849 52.7867L425.943 54.3466H427.747V53.3081ZM500.934 78.0202V131H503.011V78.0202H500.934ZM501.972 129.962H487.394V132.038H501.972V129.962ZM488.432 131V82.4648H486.356V131H488.432ZM488.432 82.4648C488.432 77.4794 487.952 72.7819 486.986 68.3753L484.957 68.8199C485.888 73.0655 486.356 77.6127 486.356 82.4648H488.432ZM486.989 68.3913C486.078 63.8964 484.524 59.9207 482.312 56.48L480.565 57.6032C482.62 60.7998 484.087 64.5281 484.954 68.8039L486.989 68.3913ZM482.323 56.4982C480.156 52.9688 477.269 50.2049 473.673 48.2209L472.67 50.0394C475.948 51.8482 478.572 54.3586 480.553 57.585L482.323 56.4982ZM473.673 48.2209C470.043 46.2182 465.592 45.2472 460.371 45.2472V47.3241C465.343 47.3241 469.425 48.2494 472.67 50.0394L473.673 48.2209ZM460.371 45.2472C455.983 45.2472 452.015 46.0094 448.486 47.5569L449.321 49.4589C452.548 48.0434 456.225 47.3241 460.371 47.3241V45.2472ZM448.486 47.5569C444.961 49.1033 441.956 51.3646 439.483 54.3323L441.079 55.6619C443.347 52.9404 446.091 50.8756 449.321 49.4589L448.486 47.5569ZM439.483 54.3323C437.007 57.3036 435.14 60.9622 433.863 65.2807L435.854 65.8698C437.066 61.7731 438.814 58.3796 441.079 55.6619L439.483 54.3323ZM433.863 65.2807C432.584 69.6038 431.953 74.536 431.953 80.0647H434.03C434.03 74.6893 434.644 69.9619 435.854 65.8698L433.863 65.2807ZM433.346 79.0884L426.234 76.5105L425.527 78.4631L432.638 81.041L433.346 79.0884ZM426.919 77.4868C426.919 68.0348 428.211 60.0513 430.759 53.5071L428.824 52.7535C426.157 59.6025 424.842 67.8567 424.842 77.4868H426.919ZM430.759 53.5071C433.286 47.0172 437.404 42.1078 443.12 38.7352L442.065 36.9465C435.928 40.5668 431.512 45.8504 428.824 52.7535L430.759 53.5071ZM443.116 38.7375C448.919 35.3475 455.726 33.6347 463.571 33.6347V31.5578C455.415 31.5578 448.236 33.3414 442.068 36.9442L443.116 38.7375ZM463.571 33.6347C469.453 33.6347 474.464 34.5378 478.632 36.3077L479.444 34.396C474.96 32.4917 469.659 31.5578 463.571 31.5578V33.6347ZM478.637 36.3097C482.9 38.0958 486.417 40.5037 489.209 43.5238L490.734 42.1139C487.719 38.8522 483.946 36.2822 479.439 34.3941L478.637 36.3097ZM489.216 43.5314C492.097 46.5843 494.371 50.0384 496.041 53.8984L497.947 53.0734C496.181 48.9923 493.773 45.335 490.727 42.1062L489.216 43.5314ZM496.049 53.9156C497.791 57.7479 499.04 61.7545 499.795 65.9376L501.839 65.5685C501.053 61.2179 499.753 57.0464 497.94 53.0562L496.049 53.9156ZM499.795 65.9401C500.555 70.0906 500.934 74.117 500.934 78.0202H503.011C503.011 73.9823 502.619 69.8306 501.838 65.566L499.795 65.9401ZM431.865 53.3081V131H433.941V53.3081H431.865ZM432.903 129.962H418.414V132.038H432.903V129.962ZM419.452 131V34.9963H417.375V131H419.452ZM418.414 36.0348H431.392V33.9578H418.414V36.0348ZM430.353 34.9963V41.4854H432.43V34.9963H430.353ZM430.353 41.4854C430.353 43.1891 430.023 45.0625 429.34 47.1128L431.31 47.7696C432.049 45.5532 432.43 43.4559 432.43 41.4854H430.353ZM429.334 47.1299C428.705 49.1325 427.876 51.0175 426.849 52.7867L428.645 53.8296C429.751 51.9245 430.641 49.8983 431.316 47.7526L429.334 47.1299ZM427.747 54.3466H432.903V52.2697H427.747V54.3466ZM533.46 82.3759L534.128 81.5807L534.128 81.5807L533.46 82.3759ZM533.46 38.9965L534.167 39.7569L534.171 39.7531L533.46 38.9965ZM584.484 38.9965L583.769 39.7495L583.773 39.7533L584.484 38.9965ZM584.484 82.3759L583.812 81.5841L583.812 81.5841L584.484 82.3759ZM543.86 46.9079L543.184 46.1194L543.184 46.1194L543.86 46.9079ZM543.86 74.3756L543.177 75.1579L543.184 75.1641L543.86 74.3756ZM574.261 74.3756L574.956 75.1475L574.963 75.1411L574.261 74.3756ZM574.261 46.9079L574.956 46.136L574.956 46.136L574.261 46.9079ZM522.97 162.646L523.604 161.823L523.6 161.82L522.97 162.646ZM510.081 135.267L509.043 135.297L509.043 135.298L510.081 135.267ZM516.659 114.199L515.848 113.551L515.846 113.553L516.659 114.199ZM539.504 106.555L539.325 107.577L540.219 107.735L540.494 106.869L539.504 106.555ZM540.127 104.599L541.116 104.914L541.384 104.072L540.596 103.673L540.127 104.599ZM533.993 101.488L533.495 100.576L531.765 101.522L533.523 102.414L533.993 101.488ZM595.24 107.799L594.573 108.595L595.24 107.799ZM595.24 162.646L594.616 161.816L594.612 161.818L595.24 162.646ZM533.548 115.711L532.943 114.867L532.939 114.87L533.548 115.711ZM533.548 153.579L534.175 152.751L534.174 152.75L533.548 153.579ZM584.573 153.579L583.935 152.759L583.926 152.766L584.573 153.579ZM584.573 115.711L583.947 116.539L583.951 116.542L584.573 115.711ZM558.883 80.6869H559.921V79.6485H558.883V80.6869ZM558.883 89.8429V90.8813H559.921V89.8429H558.883ZM543.504 90.7318L543.119 89.7676L543.112 89.7703L543.105 89.7732L543.504 90.7318ZM543.593 96.4209L543.979 95.4567L543.979 95.4567L543.593 96.4209ZM558.883 97.3098H559.921V96.2714H558.883V97.3098ZM558.883 106.288V107.326H559.921V106.288H558.883ZM535.415 83.3537L535.819 84.3103L535.819 84.3103L535.415 83.3537ZM588.128 41.841L587.171 42.244L587.172 42.2462L588.128 41.841ZM590.351 47.0857L589.627 47.8307L591.307 46.6805L590.351 47.0857ZM581.195 38.1964L580.335 37.614L579.847 38.3349L580.471 38.9415L581.195 38.1964ZM583.062 35.4408L583.921 36.0232L584.384 35.3394L583.822 34.7341L583.062 35.4408ZM578.439 19.2624L577.611 18.6355L577.605 18.6431L578.439 19.2624ZM606.529 13.0399H607.568V12.0014H606.529V13.0399ZM606.529 25.1292V26.1677H607.568V25.1292H606.529ZM585.817 28.4183L584.935 27.87L584.93 27.8787L584.925 27.8875L585.817 28.4183ZM534.128 81.5807C528.49 76.8453 525.609 69.9096 525.609 60.5973H523.532C523.532 70.3672 526.577 77.9506 532.792 83.1711L534.128 81.5807ZM525.609 60.5973C525.609 51.965 528.474 45.0512 534.167 39.7569L532.752 38.236C526.593 43.9643 523.532 51.4511 523.532 60.5973H525.609ZM534.171 39.7531C539.845 34.4198 548.029 31.679 558.883 31.679V29.6021C547.691 29.6021 538.927 32.4319 532.748 38.2398L534.171 39.7531ZM558.883 31.679C569.921 31.679 578.159 34.4228 583.769 39.7495L585.199 38.2434C579.075 32.429 570.246 29.6021 558.883 29.6021V31.679ZM583.773 39.7533C589.395 45.0347 592.246 52.2081 592.246 61.3973H594.323C594.323 51.7413 591.307 43.9809 585.195 38.2396L583.773 39.7533ZM592.246 61.3973C592.246 70.1578 589.406 76.8379 583.812 81.5841L585.156 83.1677C591.296 77.958 594.323 70.6523 594.323 61.3973H592.246ZM583.812 81.5841C578.202 86.344 569.947 88.8044 558.883 88.8044V90.8813C570.22 90.8813 579.032 88.3638 585.156 83.1677L583.812 81.5841ZM558.883 88.8044C548.003 88.8044 539.801 86.3465 534.128 81.5807L532.792 83.1711C538.97 88.3612 547.718 90.8813 558.883 90.8813V88.8044ZM543.184 46.1194C539.169 49.5613 537.221 54.503 537.221 60.7751H539.298C539.298 54.9578 541.084 50.6547 544.536 47.6963L543.184 46.1194ZM537.221 60.7751C537.221 66.8258 539.178 71.6668 543.177 75.1579L544.543 73.5933C541.075 70.5656 539.298 66.3396 539.298 60.7751H537.221ZM543.184 75.1641C547.152 78.5647 552.391 80.2142 558.794 80.2142V78.1373C552.752 78.1373 548.035 76.5868 544.536 73.5871L543.184 75.1641ZM558.794 80.2142C565.701 80.2142 571.143 78.5786 574.956 75.1475L573.566 73.6037C570.267 76.5728 565.399 78.1373 558.794 78.1373V80.2142ZM574.963 75.1411C578.755 71.6654 580.633 67.1101 580.633 61.5751H578.556C578.556 66.5887 576.879 70.567 573.559 73.6101L574.963 75.1411ZM580.633 61.5751C580.633 54.8174 578.803 49.5986 574.956 46.136L573.566 47.6798C576.831 50.6174 578.556 55.1767 578.556 61.5751H580.633ZM574.956 46.136C571.143 42.7049 565.701 41.0692 558.794 41.0692V43.1462C565.399 43.1462 570.267 44.7106 573.566 47.6798L574.956 46.136ZM558.794 41.0692C552.391 41.0692 547.152 42.7188 543.184 46.1194L544.536 47.6963C548.035 44.6967 552.752 43.1462 558.794 43.1462V41.0692ZM523.6 161.82C515.652 155.759 511.467 146.949 511.119 135.236L509.043 135.298C509.406 147.527 513.814 156.969 522.341 163.471L523.6 161.82ZM511.119 135.237C510.888 127.216 513.019 120.44 517.471 114.846L515.846 113.553C511.054 119.574 508.8 126.843 509.043 135.297L511.119 135.237ZM517.47 114.848C522.648 108.376 529.858 105.914 539.325 107.577L539.684 105.532C529.594 103.759 521.574 106.393 515.848 113.551L517.47 114.848ZM540.494 106.869L541.116 104.914L539.137 104.284L538.515 106.24L540.494 106.869ZM540.596 103.673L534.463 100.562L533.523 102.414L539.657 105.525L540.596 103.673ZM534.491 102.399C539.347 99.7451 547.421 98.3483 558.883 98.3483V96.2714C547.351 96.2714 538.832 97.6598 533.495 100.576L534.491 102.399ZM558.883 98.3483C574.63 98.3483 586.473 101.817 594.573 108.595L595.906 107.003C587.294 99.7956 574.9 96.2714 558.883 96.2714V98.3483ZM594.573 108.595C602.67 115.371 606.735 124.519 606.735 136.156H608.812C608.812 123.969 604.522 114.213 595.906 107.003L594.573 108.595ZM606.735 136.156C606.735 147.241 602.685 155.749 594.616 161.816L595.864 163.476C604.506 156.979 608.812 147.827 608.812 136.156H606.735ZM594.612 161.818C586.508 167.968 574.649 171.119 558.883 171.119V173.196C574.881 173.196 587.259 170.005 595.868 163.473L594.612 161.818ZM558.883 171.119C543.296 171.119 531.588 167.969 523.604 161.823L522.337 163.469C530.828 170.005 543.061 173.196 558.883 173.196V171.119ZM532.939 114.87C526.586 119.479 523.443 126.245 523.443 135H525.52C525.52 126.807 528.422 120.713 534.158 116.551L532.939 114.87ZM523.443 135C523.443 143.136 526.608 149.641 532.923 154.407L534.174 152.75C528.399 148.39 525.52 142.51 525.52 135H523.443ZM532.922 154.407C539.267 159.211 547.961 161.551 558.883 161.551V159.474C548.233 159.474 540.038 157.191 534.175 152.751L532.922 154.407ZM558.883 161.551C570.319 161.551 579.153 159.219 585.219 154.391L583.926 152.766C578.377 157.183 570.084 159.474 558.883 159.474V161.551ZM585.21 154.398C591.314 149.651 594.411 143.548 594.411 136.156H592.335C592.335 142.868 589.565 148.38 583.935 152.759L585.21 154.398ZM594.411 136.156C594.411 126.678 591.391 119.511 585.194 114.879L583.951 116.542C589.488 120.681 592.335 127.143 592.335 136.156H594.411ZM585.198 114.882C579.135 110.303 570.31 108.094 558.883 108.094V110.171C570.093 110.171 578.395 112.347 583.947 116.539L585.198 114.882ZM558.883 108.094C547.971 108.094 539.285 110.311 532.943 114.867L534.154 116.554C540.02 112.34 548.224 110.171 558.883 110.171V108.094ZM557.844 80.6869V89.8429H559.921V80.6869H557.844ZM558.883 88.8044H548.749V90.8813H558.883V88.8044ZM548.749 88.8044C546.635 88.8044 544.751 89.1149 543.119 89.7676L543.89 91.696C545.221 91.1634 546.833 90.8813 548.749 90.8813V88.8044ZM543.105 89.7732C542.273 90.1199 541.569 90.6037 541.074 91.2643C540.57 91.9362 540.333 92.7235 540.333 93.5763H542.409C542.409 93.1254 542.528 92.7867 542.735 92.5105C542.951 92.2229 543.314 91.9363 543.904 91.6904L543.105 89.7732ZM540.333 93.5763C540.333 94.4393 540.583 95.2323 541.108 95.9046C541.623 96.563 542.35 97.0422 543.208 97.3851L543.979 95.4567C543.355 95.207 542.971 94.9157 542.745 94.626C542.529 94.3501 542.409 94.0171 542.409 93.5763H540.333ZM543.208 97.3851C544.836 98.0365 546.69 98.3483 548.749 98.3483V96.2714C546.897 96.2714 545.314 95.9905 543.979 95.4567L543.208 97.3851ZM548.749 98.3483H558.883V96.2714H548.749V98.3483ZM557.844 97.3098V106.288H559.921V97.3098H557.844ZM558.883 105.249H552.749V107.326H558.883V105.249ZM552.749 105.249C545.841 105.249 540.311 104.282 536.105 102.406L535.259 104.303C539.824 106.339 545.672 107.326 552.749 107.326V105.249ZM536.105 102.406C534.05 101.49 532.576 100.299 531.61 98.8636C530.647 97.4316 530.142 95.6856 530.142 93.5763H528.065C528.065 96.0302 528.657 98.1955 529.887 100.023C531.114 101.847 532.928 103.263 535.259 104.303L536.105 102.406ZM530.142 93.5763C530.142 91.2011 530.638 89.2907 531.565 87.7883C532.488 86.2931 533.885 85.1275 535.819 84.3103L535.011 82.3971C532.738 83.3577 530.979 84.7849 529.798 86.6972C528.622 88.6024 528.065 90.9143 528.065 93.5763H530.142ZM535.819 84.3103C539.845 82.6094 545.465 81.7254 552.749 81.7254V79.6485C545.336 79.6485 539.401 80.5423 535.011 82.3971L535.819 84.3103ZM552.749 81.7254H558.883V79.6485H552.749V81.7254ZM587.172 42.2462L589.395 47.4908L591.307 46.6805L589.085 41.4359L587.172 42.2462ZM591.074 46.3406L581.918 37.4514L580.471 38.9415L589.627 47.8307L591.074 46.3406ZM582.055 38.7788L583.921 36.0232L582.202 34.8583L580.335 37.614L582.055 38.7788ZM583.822 34.7341C580.791 31.4697 578.988 28.6042 578.282 26.1329C577.592 23.7166 577.943 21.6718 579.273 19.8816L577.605 18.6431C575.854 21.0012 575.435 23.7269 576.285 26.7035C577.12 29.625 579.169 32.7745 582.301 36.1474L583.822 34.7341ZM579.267 19.8892C582.132 16.1051 587.139 14.0784 594.618 14.0784V12.0014C586.807 12.0014 581.028 14.123 577.611 18.6355L579.267 19.8892ZM594.618 14.0784H606.529V12.0014H594.618V14.0784ZM605.491 13.0399V25.1292H607.568V13.0399H605.491ZM606.529 24.0908H595.506V26.1677H606.529V24.0908ZM595.506 24.0908C590.381 24.0908 586.613 25.1707 584.935 27.87L586.699 28.9665C587.747 27.2805 590.439 26.1677 595.506 26.1677V24.0908ZM584.925 27.8875C584.08 29.3088 583.996 31.2845 584.394 33.5947C584.798 35.9423 585.735 38.8319 587.171 42.244L589.085 41.438C587.678 38.0943 586.807 35.3689 586.441 33.2422C586.068 31.0781 586.251 29.7205 586.71 28.949L584.925 27.8875ZM720.383 131.089L720.095 130.091L720.083 130.095L720.383 131.089ZM677.537 129.133L677.127 130.087L677.137 130.091L677.537 129.133ZM659.314 115.888L658.525 116.563L658.529 116.568L659.314 115.888ZM650.247 94.5542L650.193 93.5171L649.07 93.5762L649.218 94.6909L650.247 94.5542ZM665.448 93.7541L666.462 93.5288L666.271 92.6709L665.393 92.7171L665.448 93.7541ZM678.337 112.866L677.744 113.718L677.753 113.724L678.337 112.866ZM718.695 117.044L718.317 116.076L718.313 116.078L718.695 117.044ZM730.162 108.955L730.974 109.602L730.979 109.595L730.162 108.955ZM732.651 88.5095L731.717 88.9638L731.722 88.9739L731.727 88.9838L732.651 88.5095ZM728.295 82.9982L727.615 83.7829L727.629 83.795L727.643 83.8065L728.295 82.9982ZM722.25 79.1758L721.817 80.1195L721.826 80.1237L722.25 79.1758ZM715.583 76.5979L715.896 75.6076L715.887 75.6047L715.877 75.6019L715.583 76.5979ZM683.049 66.9975L682.749 67.9918L682.755 67.9935L683.049 66.9975ZM672.471 62.8196L671.993 63.7417L672 63.7451L672.006 63.7484L672.471 62.8196ZM663.67 56.5971L662.936 57.3314L662.945 57.3402L662.954 57.3487L663.67 56.5971ZM657.714 47.7968L656.763 48.2139L656.763 48.2139L657.714 47.7968ZM661.27 16.8623L660.433 16.2481L660.428 16.2543L661.27 16.8623ZM677.093 4.59513L676.687 3.63932L676.684 3.64063L677.093 4.59513ZM699.849 0.417186L699.842 1.45562L699.842 1.45562L699.849 0.417186ZM722.872 4.86181L722.465 5.81717L722.468 5.81842L722.872 4.86181ZM740.118 17.6623L740.92 17.0033L740.92 17.0033L740.118 17.6623ZM748.385 39.6187L748.445 40.6554L749.524 40.5923L749.418 39.5167L748.385 39.6187ZM733.184 40.5076L732.152 40.6258L732.264 41.6017L733.245 41.5443L733.184 40.5076ZM727.495 26.1071L726.679 26.7498L726.685 26.7573L727.495 26.1071ZM715.494 17.2178L715.097 18.1771L715.101 18.1788L715.494 17.2178ZM699.672 14.1955L699.66 15.234H699.672V14.1955ZM674.604 24.4181L675.41 25.0724L675.416 25.065L674.604 24.4181ZM674.248 45.3078L673.479 46.0055L673.487 46.0144L674.248 45.3078ZM682.782 51.1747L682.379 52.1318L682.385 52.1343L682.782 51.1747ZM692.827 54.7304L692.537 55.7275L692.54 55.7284L692.827 54.7304ZM717.539 61.8418L717.252 62.8398L717.256 62.8411L717.539 61.8418ZM737.362 70.8199L736.746 71.6559L736.754 71.662L736.762 71.6679L737.362 70.8199ZM745.807 80.5092L744.894 81.0055L744.899 81.0135L744.903 81.0215L745.807 80.5092ZM745.54 111.888L744.616 111.415L744.614 111.419L745.54 111.888ZM735.495 123.8L736.113 124.635L736.12 124.629L735.495 123.8ZM720.083 130.095C714.502 131.781 708.441 132.628 701.894 132.628V134.705C708.621 134.705 714.887 133.834 720.684 132.083L720.083 130.095ZM701.894 132.628C693.003 132.628 685.023 131.137 677.938 128.175L677.137 130.091C684.511 133.174 692.769 134.705 701.894 134.705V132.628ZM677.947 128.179C670.917 125.158 664.972 120.835 660.099 115.208L658.529 116.568C663.613 122.438 669.817 126.946 677.127 130.087L677.947 128.179ZM660.103 115.213C655.332 109.636 652.38 102.72 651.277 94.4174L649.218 94.6909C650.367 103.338 653.46 110.643 658.525 116.563L660.103 115.213ZM650.302 95.5912L665.503 94.7911L665.393 92.7171L650.193 93.5171L650.302 95.5912ZM664.434 93.9794C666.269 102.238 670.718 108.831 677.744 113.718L678.93 112.013C672.326 107.419 668.182 101.271 666.462 93.5288L664.434 93.9794ZM677.753 113.724C684.819 118.536 693.087 120.927 702.516 120.927V118.85C693.456 118.85 685.605 116.559 678.922 112.008L677.753 113.724ZM702.516 120.927C708.612 120.927 714.137 119.961 719.076 118.01L718.313 116.078C713.652 117.919 708.391 118.85 702.516 118.85V120.927ZM719.072 118.011C724.073 116.06 728.057 113.264 730.974 109.602L729.349 108.308C726.696 111.638 723.035 114.235 718.317 116.076L719.072 118.011ZM730.979 109.595C733.917 105.845 735.378 101.438 735.378 96.4209H733.301C733.301 101.005 731.977 104.953 729.344 108.314L730.979 109.595ZM735.378 96.4209C735.378 93.2147 734.792 90.4067 733.574 88.0351L731.727 88.9838C732.761 90.9976 733.301 93.4639 733.301 96.4209H735.378ZM733.584 88.0552C732.453 85.7299 730.907 83.7704 728.947 82.1898L727.643 83.8065C729.357 85.189 730.715 86.9037 731.717 88.9638L733.584 88.0552ZM728.975 82.2134C727.117 80.6028 725.015 79.2748 722.674 78.2279L721.826 80.1237C723.99 81.0916 725.917 82.3119 727.615 83.7829L728.975 82.2134ZM722.684 78.2322C720.453 77.2071 718.19 76.3321 715.896 75.6076L715.271 77.5882C717.48 78.286 719.662 79.1296 721.817 80.1194L722.684 78.2322ZM715.877 75.6019L683.343 66.0015L682.755 67.9935L715.289 77.5939L715.877 75.6019ZM683.349 66.0033C679.669 64.8935 676.198 63.5223 672.935 61.8908L672.006 63.7484C675.38 65.4355 678.962 66.8496 682.749 67.9918L683.349 66.0033ZM672.948 61.8974C669.711 60.2213 666.86 58.2033 664.387 55.8456L662.954 57.3487C665.577 59.8504 668.592 61.9807 671.993 63.7417L672.948 61.8974ZM664.404 55.8628C662.011 53.4695 660.098 50.645 658.665 47.3797L656.763 48.2139C658.294 51.7044 660.351 54.7468 662.936 57.3314L664.404 55.8628ZM658.665 47.3797C657.253 44.1605 656.531 40.3379 656.531 35.8852H654.454C654.454 40.5589 655.212 44.6772 656.763 48.2139L658.665 47.3797ZM656.531 35.8852C656.531 28.7284 658.403 22.6064 662.112 17.4703L660.428 16.2543C656.434 21.7853 654.454 28.3452 654.454 35.8852H656.531ZM662.107 17.4764C665.899 12.3061 671.019 8.32797 677.502 5.54963L676.684 3.64063C669.892 6.55139 664.464 10.7513 660.433 16.2482L662.107 17.4764ZM677.499 5.55093C684.045 2.77027 691.486 1.3972 699.842 1.45562L699.857 -0.62125C691.263 -0.681338 683.534 0.730883 676.687 3.63932L677.499 5.55093ZM699.842 1.45562C708.259 1.51408 715.795 2.9748 722.465 5.81716L723.28 3.90645C716.32 0.941186 708.507 -0.561175 699.857 -0.621251L699.842 1.45562ZM722.468 5.81842C729.192 8.65843 734.802 12.8247 739.315 18.3213L740.92 17.0033C736.188 11.2402 730.302 6.87281 723.277 3.90519L722.468 5.81842ZM739.315 18.3213C743.779 23.7577 746.477 30.8676 747.351 39.7207L749.418 39.5167C748.514 30.3543 745.701 22.8266 740.92 17.0033L739.315 18.3213ZM748.324 38.582L733.123 39.4709L733.245 41.5443L748.445 40.6554L748.324 38.582ZM734.216 40.3894C733.545 34.5338 731.585 29.5417 728.305 25.4568L726.685 26.7573C729.687 30.495 731.519 35.1032 732.152 40.6258L734.216 40.3894ZM728.311 25.4644C725.111 21.4029 720.961 18.3349 715.888 16.2569L715.101 18.1788C719.865 20.1305 723.716 22.9887 726.679 26.7497L728.311 25.4644ZM715.892 16.2586C710.897 14.1873 705.486 13.157 699.672 13.157V15.234C705.235 15.234 710.373 16.2186 715.097 18.1771L715.892 16.2586ZM699.683 13.1571C694.053 13.0966 688.988 14.0045 684.51 15.9064L685.321 17.8181C689.495 16.0458 694.268 15.1759 699.66 15.2339L699.683 13.1571ZM684.51 15.9064C680.048 17.8009 676.463 20.4169 673.792 23.7712L675.416 25.065C677.842 22.019 681.13 19.5978 685.321 17.8181L684.51 15.9064ZM673.797 23.7638C671.097 27.0919 669.743 30.9385 669.743 35.263H671.82C671.82 31.4093 673.014 28.026 675.41 25.0724L673.797 23.7638ZM669.743 35.263C669.743 39.6133 670.96 43.2284 673.479 46.0055L675.018 44.6102C672.914 42.2907 671.82 39.2093 671.82 35.263H669.743ZM673.487 46.0144C675.907 48.6197 678.876 50.6569 682.379 52.1318L683.185 50.2176C679.932 48.8479 677.213 46.9739 675.009 44.6012L673.487 46.0144ZM682.385 52.1343C685.854 53.5696 689.238 54.7678 692.537 55.7275L693.117 53.7333C689.897 52.7966 686.585 51.6243 683.179 50.2151L682.385 52.1343ZM692.54 55.7284L717.252 62.8397L717.826 60.8438L693.114 53.7324L692.54 55.7284ZM717.256 62.8411C719.944 63.6006 723.054 64.6562 726.59 66.0116L727.333 64.0722C723.757 62.7015 720.586 61.6237 717.821 60.8425L717.256 62.8411ZM726.59 66.0116C730.05 67.338 733.435 69.2167 736.746 71.6559L737.978 69.9839C734.532 67.4452 730.984 65.4718 727.333 64.0722L726.59 66.0116ZM736.762 71.6679C740.058 73.9978 742.771 77.1025 744.894 81.0055L746.719 80.0128C744.457 75.8562 741.54 72.5014 737.961 69.9719L736.762 71.6679ZM744.903 81.0215C747.042 84.7918 748.146 89.6381 748.146 95.6209H750.223C750.223 89.3957 749.075 84.1675 746.71 79.9969L744.903 81.0215ZM748.146 95.6209C748.146 101.584 746.96 106.84 744.616 111.415L746.464 112.362C748.979 107.454 750.223 101.865 750.223 95.6209H748.146ZM744.614 111.419C742.317 115.955 739.074 119.803 734.87 122.97L736.12 124.629C740.569 121.277 744.022 117.185 746.466 112.357L744.614 111.419ZM734.878 122.965C730.661 126.084 725.738 128.462 720.095 130.091L720.671 132.087C726.525 130.397 731.677 127.916 736.113 124.635L734.878 122.965ZM779.15 127.178L778.593 128.054L778.593 128.054L779.15 127.178ZM763.416 109.221L762.48 109.671L762.48 109.671L763.416 109.221ZM763.505 56.4193L762.573 55.9608L762.573 55.9608L763.505 56.4193ZM779.327 38.7298L779.873 39.6134L779.875 39.6121L779.327 38.7298ZM828.396 38.8187L827.839 39.6955L827.848 39.701L828.396 38.8187ZM844.13 56.686L843.191 57.13L843.195 57.1387L844.13 56.686ZM844.13 109.488L845.065 109.941L845.066 109.938L844.13 109.488ZM781.016 109.844L780.191 110.474L780.194 110.477L781.016 109.844ZM826.707 109.577L825.873 108.958L825.869 108.963L826.707 109.577ZM826.707 56.1527L825.881 56.7816L825.883 56.7851L826.707 56.1527ZM786.617 50.8191L787.203 51.6762L787.211 51.6709L786.617 50.8191ZM776.572 63.7974L777.537 64.1813L777.538 64.1778L776.572 63.7974ZM827.759 126.384C821.076 130.533 813.095 132.628 803.773 132.628V134.705C813.414 134.705 821.789 132.534 828.855 128.149L827.759 126.384ZM803.773 132.628C794.332 132.628 786.326 130.503 779.706 126.301L778.593 128.054C785.604 132.505 794.013 134.705 803.773 134.705V132.628ZM779.706 126.301C773.063 122.084 767.946 116.251 764.352 108.772L762.48 109.671C766.234 117.482 771.606 123.619 778.593 128.054L779.706 126.301ZM764.352 108.772C760.755 101.289 758.943 92.6761 758.943 82.9093H756.866C756.866 92.9358 758.728 101.865 762.48 109.671L764.352 108.772ZM758.943 82.9093C758.943 72.9636 760.785 64.2959 764.436 56.8779L762.573 55.9608C758.757 63.7137 756.866 72.706 756.866 82.9093H758.943ZM764.436 56.8779C768.089 49.4574 773.233 43.7126 779.873 39.6134L778.782 37.8461C771.791 42.1621 766.388 48.2103 762.573 55.9608L764.436 56.8779ZM779.875 39.6121C786.559 35.4632 794.511 33.368 803.773 33.368V31.2911C794.189 31.2911 785.844 33.4627 778.78 37.8475L779.875 39.6121ZM803.773 33.368C813.214 33.368 821.22 35.4935 827.839 39.6954L828.952 37.9419C821.942 33.4916 813.532 31.2911 803.773 31.2911V33.368ZM827.848 39.701C834.545 43.8575 839.658 49.6574 843.191 57.13L845.069 56.2421C841.372 48.4252 835.996 42.3135 828.944 37.9363L827.848 39.701ZM843.195 57.1387C846.79 64.5605 848.603 73.1422 848.603 82.9093H850.68C850.68 72.8829 848.818 63.9825 845.064 56.2333L843.195 57.1387ZM848.603 82.9093C848.603 92.8569 846.789 101.558 843.194 109.038L845.066 109.938C848.819 102.129 850.68 93.1105 850.68 82.9093H848.603ZM843.195 109.035C839.603 116.452 834.46 122.226 827.759 126.384L828.855 128.149C835.903 123.774 841.308 117.695 845.064 109.941L843.195 109.035ZM780.194 110.477C785.583 117.478 793.502 120.927 803.773 120.927V118.85C794.013 118.85 786.761 115.603 781.839 109.21L780.194 110.477ZM803.773 120.927C814.28 120.927 822.271 117.388 827.545 110.191L825.869 108.963C821.069 115.515 813.77 118.85 803.773 118.85V120.927ZM827.541 110.195C832.803 103.098 835.39 93.9746 835.39 82.9093H833.313C833.313 93.6522 830.804 102.307 825.873 108.958L827.541 110.195ZM835.39 82.9093C835.39 71.5571 832.807 62.3917 827.531 55.5202L825.883 56.7851C830.8 63.1882 833.313 71.8606 833.313 82.9093H835.39ZM827.533 55.5238C822.198 48.5138 814.213 45.0694 803.773 45.0694V47.1463C813.718 47.1463 821.023 50.3985 825.881 56.7816L827.533 55.5238ZM803.773 45.0694C796.683 45.0694 790.742 46.6764 786.023 49.9673L787.211 51.6709C791.499 48.6801 796.996 47.1463 803.773 47.1463V45.0694ZM786.03 49.9621C781.338 53.1723 777.867 57.6727 775.605 63.4171L777.538 64.1778C779.662 58.7809 782.887 54.6291 787.203 51.6762L786.03 49.9621ZM775.607 63.4135C773.356 69.0705 772.244 75.5758 772.244 82.9093H774.321C774.321 75.7829 775.402 69.5469 777.537 64.1813L775.607 63.4135ZM772.244 82.9093C772.244 94.265 774.859 103.487 780.191 110.474L781.842 109.214C776.862 102.689 774.321 93.9543 774.321 82.9093H772.244ZM880.612 127.178L880.055 128.054L880.055 128.054L880.612 127.178ZM864.878 109.221L863.942 109.671L863.942 109.671L864.878 109.221ZM864.967 56.4193L864.035 55.9608L864.035 55.9608L864.967 56.4193ZM880.79 38.7298L881.335 39.6134L881.337 39.6121L880.79 38.7298ZM929.858 38.8187L929.302 39.6955L929.311 39.701L929.858 38.8187ZM945.592 56.686L944.653 57.13L944.658 57.1387L945.592 56.686ZM945.592 109.488L946.527 109.941L946.528 109.938L945.592 109.488ZM882.479 109.844L881.653 110.474L881.656 110.477L882.479 109.844ZM928.169 109.577L927.335 108.958L927.332 108.963L928.169 109.577ZM928.169 56.1527L927.343 56.7816L927.346 56.7851L928.169 56.1527ZM888.079 50.8191L888.665 51.6762L888.673 51.6709L888.079 50.8191ZM878.034 63.7974L878.999 64.1813L879 64.1778L878.034 63.7974ZM929.222 126.384C922.538 130.533 914.557 132.628 905.235 132.628V134.705C914.877 134.705 923.252 132.534 930.317 128.149L929.222 126.384ZM905.235 132.628C895.794 132.628 887.788 130.503 881.168 126.301L880.055 128.054C887.066 132.505 895.475 134.705 905.235 134.705V132.628ZM881.168 126.301C874.526 122.084 869.408 116.251 865.814 108.772L863.942 109.671C867.696 117.482 873.068 123.619 880.055 128.054L881.168 126.301ZM865.814 108.772C862.217 101.289 860.405 92.6761 860.405 82.9093H858.328C858.328 92.9358 860.19 101.865 863.942 109.671L865.814 108.772ZM860.405 82.9093C860.405 72.9636 862.247 64.2959 865.899 56.8779L864.035 55.9608C860.219 63.7137 858.328 72.706 858.328 82.9093H860.405ZM865.899 56.8779C869.551 49.4574 874.696 43.7126 881.335 39.6134L880.244 37.8461C873.253 42.1621 867.85 48.2103 864.035 55.9608L865.899 56.8779ZM881.337 39.6121C888.022 35.4632 895.974 33.368 905.235 33.368V31.2911C895.651 31.2911 887.306 33.4627 880.242 37.8475L881.337 39.6121ZM905.235 33.368C914.676 33.368 922.682 35.4935 929.302 39.6954L930.415 37.9419C923.404 33.4916 914.995 31.2911 905.235 31.2911V33.368ZM929.311 39.701C936.007 43.8575 941.12 49.6574 944.653 57.13L946.531 56.2421C942.835 48.4252 937.458 42.3135 930.406 37.9363L929.311 39.701ZM944.658 57.1387C948.252 64.5605 950.065 73.1422 950.065 82.9093H952.142C952.142 72.8829 950.28 63.9825 946.527 56.2333L944.658 57.1387ZM950.065 82.9093C950.065 92.8569 948.251 101.558 944.656 109.038L946.528 109.938C950.281 102.129 952.142 93.1105 952.142 82.9093H950.065ZM944.658 109.035C941.065 116.452 935.922 122.226 929.222 126.384L930.317 128.149C937.366 123.774 942.771 117.695 946.527 109.941L944.658 109.035ZM881.656 110.477C887.046 117.478 894.965 120.927 905.235 120.927V118.85C895.475 118.85 888.223 115.603 883.301 109.21L881.656 110.477ZM905.235 120.927C915.742 120.927 923.733 117.388 929.007 110.191L927.332 108.963C922.531 115.515 915.232 118.85 905.235 118.85V120.927ZM929.003 110.195C934.265 103.098 936.852 93.9746 936.852 82.9093H934.776C934.776 93.6522 932.266 102.307 927.335 108.958L929.003 110.195ZM936.852 82.9093C936.852 71.5571 934.269 62.3917 928.993 55.5202L927.346 56.7851C932.262 63.1882 934.776 71.8606 934.776 82.9093H936.852ZM928.996 55.5238C923.661 48.5138 915.676 45.0694 905.235 45.0694V47.1463C915.18 47.1463 922.485 50.3985 927.343 56.7816L928.996 55.5238ZM905.235 45.0694C898.145 45.0694 892.204 46.6764 887.485 49.9673L888.673 51.6709C892.962 48.6801 898.458 47.1463 905.235 47.1463V45.0694ZM887.492 49.9621C882.8 53.1723 879.329 57.6727 877.068 63.4171L879 64.1778C881.125 58.7809 884.349 54.6291 888.665 51.6762L887.492 49.9621ZM877.069 63.4135C874.818 69.0705 873.706 75.5758 873.706 82.9093H875.783C875.783 75.7829 876.864 69.5469 878.999 64.1813L877.069 63.4135ZM873.706 82.9093C873.706 94.265 876.321 103.487 881.653 110.474L883.304 109.214C878.325 102.689 875.783 93.9543 875.783 82.9093H873.706ZM1049.63 131V132.038H1050.67V131H1049.63ZM1035.05 131H1034.02V132.038H1035.05V131ZM1033.63 68.5976L1032.61 68.8039L1032.62 68.8119L1032.62 68.8199L1033.63 68.5976ZM1029.1 57.0416L1028.21 57.585L1028.22 57.5941L1028.22 57.6032L1029.1 57.0416ZM1020.83 49.1302L1021.33 48.2209L1021.33 48.2209L1020.83 49.1302ZM996.564 48.5079L996.981 49.4589L996.981 49.4589L996.564 48.5079ZM987.941 54.9971L988.739 55.6619L988.739 55.6619L987.941 54.9971ZM982.519 65.5753L981.523 65.2807L981.523 65.2807L982.519 65.5753ZM980.652 80.0647L980.298 81.041L981.69 81.5457V80.0647H980.652ZM973.54 77.4868H972.502V78.215L973.187 78.4631L973.54 77.4868ZM977.452 53.1303L976.484 52.7535L976.484 52.7535L977.452 53.1303ZM990.252 37.8408L989.728 36.9442L989.725 36.9465L990.252 37.8408ZM1026.7 35.3519L1026.29 36.3077L1026.3 36.3097L1026.7 35.3519ZM1037.63 42.8188L1036.87 43.5238L1036.88 43.5314L1037.63 42.8188ZM1044.65 53.4859L1043.7 53.8984L1043.71 53.907L1043.71 53.9156L1044.65 53.4859ZM1048.48 65.753L1047.45 65.9376L1047.46 65.9401L1048.48 65.753ZM980.563 53.3081H981.601V52.2697H980.563V53.3081ZM980.563 131V132.038H981.601V131H980.563ZM966.074 131H965.035V132.038H966.074V131ZM966.074 34.9963V33.9578H965.035V34.9963H966.074ZM979.052 34.9963H980.09V33.9578H979.052V34.9963ZM977.985 47.4412L977 47.1128L976.997 47.1213L976.994 47.1299L977.985 47.4412ZM975.407 53.3081L974.509 52.7867L973.603 54.3466H975.407V53.3081ZM1048.59 78.0202V131H1050.67V78.0202H1048.59ZM1049.63 129.962H1035.05V132.038H1049.63V129.962ZM1036.09 131V82.4648H1034.02V131H1036.09ZM1036.09 82.4648C1036.09 77.4794 1035.61 72.7819 1034.65 68.3753L1032.62 68.8199C1033.55 73.0655 1034.02 77.6127 1034.02 82.4648H1036.09ZM1034.65 68.3913C1033.74 63.8964 1032.18 59.9207 1029.97 56.48L1028.22 57.6032C1030.28 60.7998 1031.75 64.5281 1032.61 68.8039L1034.65 68.3913ZM1029.98 56.4982C1027.82 52.9688 1024.93 50.2049 1021.33 48.2209L1020.33 50.0394C1023.61 51.8482 1026.23 54.3586 1028.21 57.585L1029.98 56.4982ZM1021.33 48.2209C1017.7 46.2182 1013.25 45.2472 1008.03 45.2472V47.3241C1013 47.3241 1017.09 48.2494 1020.33 50.0394L1021.33 48.2209ZM1008.03 45.2472C1003.64 45.2472 999.675 46.0094 996.146 47.5569L996.981 49.4589C1000.21 48.0434 1003.89 47.3241 1008.03 47.3241V45.2472ZM996.146 47.5569C992.621 49.1033 989.616 51.3646 987.143 54.3323L988.739 55.6619C991.007 52.9404 993.751 50.8756 996.981 49.4589L996.146 47.5569ZM987.143 54.3323C984.667 57.3036 982.8 60.9622 981.523 65.2807L983.514 65.8698C984.726 61.7731 986.474 58.3796 988.739 55.6619L987.143 54.3323ZM981.523 65.2807C980.244 69.6038 979.613 74.536 979.613 80.0647H981.69C981.69 74.6893 982.304 69.9619 983.514 65.8698L981.523 65.2807ZM981.006 79.0884L973.894 76.5105L973.187 78.4631L980.298 81.041L981.006 79.0884ZM974.579 77.4868C974.579 68.0348 975.871 60.0513 978.419 53.5071L976.484 52.7535C973.817 59.6025 972.502 67.8567 972.502 77.4868H974.579ZM978.419 53.5071C980.946 47.0172 985.064 42.1078 990.78 38.7352L989.725 36.9465C983.588 40.5668 979.172 45.8504 976.484 52.7535L978.419 53.5071ZM990.776 38.7375C996.579 35.3475 1003.39 33.6347 1011.23 33.6347V31.5578C1003.08 31.5578 995.896 33.3414 989.728 36.9442L990.776 38.7375ZM1011.23 33.6347C1017.11 33.6347 1022.12 34.5378 1026.29 36.3077L1027.1 34.396C1022.62 32.4917 1017.32 31.5578 1011.23 31.5578V33.6347ZM1026.3 36.3097C1030.56 38.0958 1034.08 40.5037 1036.87 43.5238L1038.39 42.1139C1035.38 38.8522 1031.61 36.2822 1027.1 34.3941L1026.3 36.3097ZM1036.88 43.5314C1039.76 46.5843 1042.03 50.0384 1043.7 53.8984L1045.61 53.0734C1043.84 48.9923 1041.43 45.335 1038.39 42.1062L1036.88 43.5314ZM1043.71 53.9156C1045.45 57.7479 1046.7 61.7545 1047.45 65.9376L1049.5 65.5685C1048.71 61.2179 1047.41 57.0464 1045.6 53.0562L1043.71 53.9156ZM1047.46 65.9401C1048.22 70.0906 1048.59 74.117 1048.59 78.0202H1050.67C1050.67 73.9823 1050.28 69.8306 1049.5 65.566L1047.46 65.9401ZM979.524 53.3081V131H981.601V53.3081H979.524ZM980.563 129.962H966.074V132.038H980.563V129.962ZM967.112 131V34.9963H965.035V131H967.112ZM966.074 36.0348H979.052V33.9578H966.074V36.0348ZM978.013 34.9963V41.4854H980.09V34.9963H978.013ZM978.013 41.4854C978.013 43.1891 977.683 45.0625 977 47.1128L978.97 47.7696C979.709 45.5532 980.09 43.4559 980.09 41.4854H978.013ZM976.994 47.1299C976.365 49.1325 975.536 51.0175 974.509 52.7867L976.305 53.8296C977.411 51.9245 978.301 49.8983 978.976 47.7526L976.994 47.1299ZM975.407 54.3466H980.563V52.2697H975.407V54.3466Z" fill="#0B0D12" mask="url(#path-1-outside-1_27_3)"/>
</svg>
