<?xml version="1.0" encoding="UTF-8" standalone="no"?>
<!DOCTYPE svg PUBLIC "-//W3C//DTD SVG 1.1//EN" "http://www.w3.org/Graphics/SVG/1.1/DTD/svg11.dtd">
<svg width="100%" height="100%" viewBox="0 0 4175 1630" version="1.1" xmlns="http://www.w3.org/2000/svg" xmlns:xlink="http://www.w3.org/1999/xlink" xml:space="preserve" xmlns:serif="http://www.serif.com/" style="fill-rule:evenodd;clip-rule:evenodd;stroke-linejoin:round;stroke-miterlimit:2;">
    <g transform="matrix(4.16667,0,0,4.16667,0,0)">
        <path d="M805.99,391C789.297,391 766.49,388.532 752.607,376.76C727.805,355.731 732.916,312.131 733.146,310.291C736.668,282.239 751.887,245.533 804.371,229.961C828.225,222.893 855.551,221.491 874.029,221.049L874.035,221.049C876.318,221.049 884.844,220.829 885.969,217.329C887.083,213.864 879.652,207.803 874.891,204.595C860.527,194.773 825.225,178.121 746.803,178.121C746.512,178.121 739.291,178.078 736.111,178.078C702.74,178.078 658.803,183.954 635.736,197.859C630.404,201.074 627.145,204.671 626.709,209.362C625.973,217.285 633.367,223.557 634.217,224.244L634.438,224.42C641.594,229.829 649.479,234.147 654.432,236.58L656.559,237.614C668.922,243.596 691.926,254.737 702.305,278.01C707.965,290.721 710.375,304.35 709.266,317.422C701.23,390.051 618.973,390.891 615.473,390.891L615.203,390.891C581.443,390.891 556.705,377.951 541.9,367.098C541.657,366.921 518.887,352.954 509.803,325.121C509.553,324.355 507.959,319.388 507.737,318.452C506.759,314.32 504.364,304.955 502.219,304.708C498.719,304.306 493.025,315.996 491.268,319.309C487.35,326.379 482.598,334.877 480.924,337.28C471.973,352.078 448.547,390.858 413.133,390.862C404.033,390.862 394.613,388.244 385.127,383.08C362.339,370.676 355.697,351.766 350.362,336.571C348.93,332.491 347.748,327.863 346.372,323.672C340.719,306.454 339.469,305.954 326.443,317.709C314.023,328.917 301.994,339.901 291.506,348.119C274.768,361.244 241.115,383.983 203.786,388.84C194.371,390.063 185.202,390.892 176.595,390.892C141.884,390.892 116.215,380.92 100.244,361.67C87.623,346.451 77.619,327.461 71.324,306.731C67.5,294.139 66.377,295.907 55.788,293.768C43.093,291.204 33.7,289.815 18.889,286.444C12.681,285.031 7.335,281.266 3.871,275.717C0.397,270.162 -0.789,263.539 0.516,257.052C2.82,245.631 12.596,237.342 23.763,237.342C25.406,237.342 27.062,237.524 28.689,237.881C31.089,238.408 33.268,238.889 35.302,239.356C40.978,240.659 52.024,242.875 55.751,243.404C56.218,243.47 57.497,243.623 57.875,243.642C65.625,244.017 65.711,243.263 68.232,233.875C68.512,232.83 68.773,231.549 69.097,230.282C80.269,185.944 111.851,152.066 155.231,135.607C165.71,131.632 182.784,128.229 201.678,128.229C218.359,128.229 241.002,131.186 254.887,142.954C278.949,163.359 279.305,193.097 277.357,209.168C275.154,227.348 263.508,271.58 203.152,289.483C184.523,295.008 162.654,297.762 132.248,298.418C128.158,298.471 123.677,298.087 122.344,300.704C120.392,304.529 124.643,310.479 124.939,310.948C131.426,322.25 147.306,341.436 179.822,341.436C185.619,341.436 191.766,340.738 198.121,339.565C227.545,334.134 252.812,318.485 273.271,302.449C288.941,290.165 308.495,270.961 317.407,261.001C317.96,260.384 320.324,258.071 322.129,253.86C323.032,251.752 323.8,249.163 324.149,246.077C324.499,242.992 324.432,239.403 323.661,235.303C323.199,232.922 315.952,187.245 315.494,183.61C311.347,150.909 310.181,124.218 310.746,107.346C310.762,106.429 311.463,21.999 362.522,2.741C363.035,2.548 370.136,-0.045 381.027,0.195C399.267,0.597 415.678,7.118 426.045,19.19C449.277,46.248 448.428,77.382 445.104,101.481C437.09,159.472 416.824,211.323 384.859,255.596C378.783,263.106 380.896,271.297 381.311,272.666C385.111,287.367 389.719,304.426 395.016,319.483C395.221,320.127 400.987,337.282 413.26,337.737C423.636,338.121 442.217,308.432 442.217,308.432C442.969,307.142 486.07,244.059 490.707,182.675C490.732,181.97 491.636,171.454 490.188,157.56C490.155,157.25 488.299,143.255 495.234,134.891C498.779,130.619 504.182,128.458 511.289,128.458C535.467,128.458 537.994,157.013 538.086,158.231C538.285,160.641 538.43,163.021 538.516,165.407C539.188,174.044 545.17,249.268 548.9,280.235C548.961,280.834 556.324,346.006 607.818,346.11C608.309,346.143 610.066,346.248 612.656,346.248C643.305,346.248 661.656,333.698 661.822,312.649C662.211,309.619 662.131,296.061 634.234,281.51C625.773,277.35 607.607,266.295 599.342,259.032C598.961,258.696 597.781,257.701 597.781,257.701C563.99,229.346 574.715,198.753 578.805,190.049C592.611,160.696 626.252,141.541 678.799,133.121C703.766,129.121 727.023,128.525 738.67,128.525C742.693,128.525 745.329,128.418 746.47,128.454C890.099,128.557 922.381,180.481 927.375,190.853C931.066,198.301 934.054,206.073 936.479,213.936C938.219,219.579 938.344,221.954 946.873,222.297C951.129,222.468 954.453,222.942 957.396,223.151C965.248,223.723 969.988,224.067 983.188,226.797C989.189,228.045 994.371,231.735 997.777,237.205C1001.29,242.848 1002.5,249.86 1001.08,256.438C998.648,267.717 988.834,275.596 977.209,275.596C975.643,275.596 974.063,275.45 972.502,275.166C964.059,273.619 960.619,273.299 956.266,272.897C955.064,272.787 953.791,272.67 952.309,272.516C951.709,272.451 951.135,272.421 950.6,272.416C942.087,272.342 941.344,274.079 940.254,280.68C938.932,288.686 936.605,296.514 933.773,304.037C919.842,341.051 890.188,370.348 852.43,384.42C843.65,387.69 827.803,390.788 805.99,391ZM880.137,270.713C830.518,271.84 804.734,278.094 791.225,292.301C785.137,298.709 781.564,306.703 780.303,316.733C780.258,317.076 779.078,326.241 784.666,333.375C788.395,338.131 794.074,340.772 801.559,341.225C801.594,341.225 802.314,341.266 803.631,341.266C814.445,341.266 869.418,338.596 889.506,285.905C889.787,285.086 893.195,277.499 890.219,273.079C889.066,271.374 885.371,270.694 880.936,270.694C880.676,270.694 880.404,270.698 880.137,270.713ZM199.664,175.731C184.767,175.731 171.451,181.601 170.889,181.848C145.057,192.662 126.747,210.573 118.011,233.612C117.731,234.418 113.755,243.3 116.344,246.579C118.219,248.954 122.052,248.75 126.4,248.75L126.885,248.746C171.186,247.774 203.758,243.278 218.606,224.485C219.059,223.969 231.894,208.941 230.417,195.269C229.834,189.934 227.254,185.556 222.744,182.255C216.457,177.908 208.719,175.731 199.664,175.731ZM357.97,108.288C357.884,123.118 359.121,145.524 361.605,168.427C362.861,180.009 364.489,187.39 365.235,190.608C365.609,192.22 366.188,192.361 366.188,192.361C366.719,192.329 366.922,192.158 367.717,191.328C371.069,187.829 375.457,176.156 378.086,169.487C387.641,146.244 394.359,120.964 398.029,94.398C398.52,91.161 402.611,62.003 393.881,49.977C391.654,46.899 388.787,43.921 385.365,43.459C384.975,43.384 384.131,43.254 382.99,43.254C376.277,43.254 360.059,48.224 358.803,86.123C358.803,86.123 357.996,103.739 357.97,108.288Z" style="fill:white;fill-rule:nonzero;"/>
        <path d="M506.418,29.109C491.648,29.109 480.295,40.677 480.008,56.024C479.688,72.892 492.701,88.081 509.02,89.886C510.072,90.001 511.129,90.06 512.166,90.06C526.936,90.06 538.291,78.49 538.576,63.147C538.896,46.279 525.873,31.09 509.553,29.281C508.506,29.165 507.453,29.109 506.418,29.109Z" style="fill:white;fill-rule:nonzero;"/>
    </g>
</svg>
