<svg width="225" height="225" viewBox="0 0 225 225" fill="none" xmlns="http://www.w3.org/2000/svg">
<path d="M132.046 0V42.4434C132.046 51.2283 129.423 60.5862 124.784 67.6162C132.923 61.6231 142.466 56.4451 152.806 54.626L214.386 43.793L221 81.2158L156.25 92.0449C162.748 95.2201 168.783 99.4768 174.069 104.75L218.284 148.862L191.351 175.732L122.768 106.147C128.755 116.043 132.046 127.505 132.046 139.388V225H93.953V182.557C93.953 173.772 96.5757 164.414 101.215 157.384C93.076 163.377 83.5343 168.555 73.1936 170.374L11.6141 181.207L5 143.784L69.75 132.955C63.252 129.78 57.2167 125.523 51.931 120.25L7.71631 76.1377L34.6494 49.2676L103.231 118.853C97.2441 108.957 93.9531 97.4945 93.953 85.6123V0H132.046Z" fill="#FFFEEA"/>
</svg>
