<svg width="1000" height="1075" viewBox="0 0 1000 1075" fill="none" xmlns="http://www.w3.org/2000/svg">
<path fill-rule="evenodd" clip-rule="evenodd" d="M594.336 133.399C594.336 177.647 580.607 219.642 556.453 254.462C556.412 254.522 556.455 254.605 556.528 254.605H999.909C999.959 254.605 1000 254.646 1000 254.696V414.821C1000 414.871 999.959 414.912 999.909 414.912H644.539C644.433 414.912 644.412 415.062 644.513 415.091C697.427 430.304 746.622 458.73 786.943 499.034L999.918 711.914C999.954 711.949 999.954 712.007 999.918 712.042L871.527 840.376C871.491 840.413 871.432 840.412 871.397 840.375L546.373 502.375C546.297 502.296 546.171 502.395 546.23 502.488C577.223 551.245 594.345 608.439 594.345 667.843V1074.91C594.345 1074.96 594.304 1075 594.254 1075L537.741 1075H405.755C405.705 1075 405.664 1074.96 405.664 1074.91V941.601C405.664 897.353 419.393 855.358 443.547 820.538C443.588 820.477 443.545 820.395 443.472 820.395H0.0910709C0.0407713 820.395 0 820.354 0 820.304V660.179C0 660.129 0.0407759 660.088 0.0910756 660.088H355.461C355.567 660.088 355.588 659.938 355.487 659.909C302.573 644.696 253.378 616.269 213.057 575.966L0.0815891 363.086C0.0460027 363.051 0.0459993 362.993 0.0815857 362.958L128.473 234.623C128.509 234.587 128.568 234.588 128.603 234.625L453.627 572.625C453.703 572.704 453.829 572.605 453.77 572.512C422.777 523.755 405.655 466.561 405.655 407.157V0.0912772C405.655 0.0409776 405.696 0.000201702 405.746 0.000201702H462.259L594.245 1.39087e-07C594.295 6.22715e-08 594.336 0.0407815 594.336 0.0910812V133.399Z" fill="white"/>
</svg>
