<svg width="59" height="63" viewBox="0 0 59 63" fill="none" xmlns="http://www.w3.org/2000/svg">
<path d="M26.916 19.2266V19.2266C31.5676 17.3236 34.6067 12.7968 34.6067 7.77097V-0.000258771H26.916V19.2266Z" fill="#06070A"/>
<path d="M26.916 24.1709V24.1709C31.7347 27.5294 34.6067 33.0319 34.6067 38.9055V62.6245H26.916V24.1709Z" fill="#06070A"/>
<path d="M26.9168 24.1706V24.1706C33.6409 22.2506 40.8776 24.1264 45.8223 29.0712L58.2275 41.4763L50.7437 48.9601L26.9168 24.1706Z" fill="#06070A"/>
<path d="M26.916 24.1709V14.8322L58.2283 14.8322V24.1709L26.916 24.1709Z" fill="#06070A"/>
<path d="M31.3125 43.3975V43.3975C26.6609 45.3004 23.6218 49.8272 23.6218 54.8531V62.6243H31.3125V43.3975Z" fill="#06070A"/>
<path d="M31.3125 38.4536V38.4536C26.4938 35.0951 23.6218 29.5926 23.6218 23.719V-3.07113e-05H31.3125V38.4536Z" fill="#06070A"/>
<path d="M31.3118 38.4544V38.4544C24.5876 40.3744 17.351 38.4986 12.4062 33.5538L0.00104415 21.1487L7.48477 13.6649L31.3118 38.4544Z" fill="#06070A"/>
<path d="M31.3125 38.4536V47.7924H0.000243992V38.4536H31.3125Z" fill="#06070A"/>
</svg>
