<svg width="556" height="597" viewBox="0 0 556 597" fill="none" xmlns="http://www.w3.org/2000/svg">
<path d="M329.912 74.0832C329.912 103.048 319.322 130.274 301.149 151.286C327.276 137.363 356.826 129.72 387.483 129.72H554.726V230.613L340.052 226.363C376.101 232.962 410.003 250.312 436.828 277.138L555.086 395.396L483.744 466.738L302.93 278.621C320.31 305.793 329.918 337.718 329.918 370.886V597H225.181V522.917C225.181 493.756 235.913 466.357 254.312 445.288C228.005 459.461 198.189 467.25 167.243 467.25H0V366.357L214.903 370.611C178.905 363.993 145.056 346.653 118.265 319.862L0.00643294 201.604L71.3487 130.261L252.162 318.379C234.782 291.207 225.175 259.281 225.175 226.114V0H329.912V74.0832Z" fill="#06070A"/>
</svg>
