<svg width="2857" height="597" viewBox="0 0 2857 597" fill="none" xmlns="http://www.w3.org/2000/svg">
<g clip-path="url(#clip0_1229_820)">
<path d="M1208.42 188.673H1305.65V233.896H1198.67L1198.78 234.023C1199.85 235.308 1208.42 246.253 1208.42 267.59V387.889C1208.42 401.091 1208.62 412.224 1209.01 421.288C1209.41 430.352 1211.38 438.333 1214.92 445.229C1222.02 458.431 1233.25 466.018 1248.61 467.988C1264.18 469.762 1283.19 469.466 1305.65 467.102V509.368C1287.13 511.339 1268.91 512.029 1250.98 511.438C1233.05 511.043 1216.99 507.595 1202.81 501.093C1188.82 494.393 1178.28 483.949 1171.18 469.762C1165.08 457.545 1161.73 445.229 1161.14 432.815C1160.74 420.204 1160.54 405.82 1160.54 389.662V233.896H1094.05V188.673H1160.54V100.001H1208.42V188.673ZM2759.77 188.673H2857V233.896H2750.02L2750.13 234.023C2751.2 235.307 2759.77 246.253 2759.77 267.59V387.889C2759.77 401.091 2759.97 412.224 2760.36 421.288C2760.75 430.352 2762.73 438.333 2766.27 445.229C2773.36 458.432 2784.59 466.018 2799.96 467.988C2815.53 469.762 2834.54 469.466 2857 467.102V509.368C2838.48 511.339 2820.26 512.029 2802.33 511.438C2784.4 511.043 2768.34 507.595 2754.15 501.093C2740.17 494.393 2729.63 483.949 2722.53 469.762C2716.43 457.545 2713.08 445.229 2712.48 432.815C2712.09 420.204 2711.89 405.82 2711.89 389.662V233.896H2645.4V188.673H2711.89V100.001H2759.77V188.673ZM721.785 511.624H673.909V86H721.785V511.624ZM1473.97 174.581C1505.69 174.581 1532.68 181.872 1554.94 196.453C1577.4 211.035 1594.35 231.922 1605.77 259.114C1617.2 286.307 1622.22 318.82 1620.85 356.653H1372.97C1374.82 389.168 1383.46 414.883 1398.9 433.798C1416.43 455.079 1441.46 465.72 1473.97 465.72C1495.83 465.72 1514.95 460.695 1531.3 450.646C1547.65 440.399 1560.46 425.817 1569.72 406.9L1617 413.699C1605.97 446.015 1587.45 470.449 1561.44 487.001C1535.44 503.356 1506.87 511.533 1475.74 511.533C1444.61 511.533 1417.52 504.636 1394.47 490.843C1371.42 477.049 1353.49 457.64 1340.68 432.615C1327.87 407.59 1321.47 378.328 1321.47 344.83C1321.47 309.953 1327.78 279.805 1340.38 254.386C1352.99 228.769 1370.63 209.064 1393.28 195.271C1416.14 181.477 1443.03 174.581 1473.97 174.581ZM2181.88 174.581C2210.85 174.581 2235.57 179.901 2256.06 190.542C2276.75 201.183 2291.53 216.848 2300.39 237.538C2304.53 247.193 2307.19 257.735 2308.37 269.164C2309.55 280.593 2310.15 292.514 2310.15 304.928V502.666H2267.59V488.774C2267.59 477.543 2269.03 472.462 2269.78 468.675C2270.83 463.372 2272.73 455.374 2274.98 450.35C2257.96 476.064 2236.97 489.872 2229.76 493.799C2202.1 508.858 2178.93 511.533 2147.6 511.533C2123.57 511.533 2103.47 507.198 2087.31 498.528C2071.16 489.858 2059.04 478.331 2050.96 463.946C2042.89 449.365 2038.85 433.6 2038.85 416.654C2038.85 399.511 2042 384.732 2048.3 372.318C2054.81 359.904 2063.97 349.362 2075.79 340.692C2087.61 331.825 2101.5 325.126 2117.46 320.594C2137.36 315.076 2157.16 312.121 2176.86 311.727C2196.76 311.332 2215.08 311.135 2231.83 311.135C2242.34 311.135 2252.7 311.174 2262.9 311.252C2262.95 278.458 2257.03 255.167 2245.13 241.38C2232.91 226.798 2211.54 219.508 2181 219.508C2160.51 219.508 2142.87 224.237 2128.1 233.695C2113.32 242.957 2104.06 257.539 2100.32 277.44L2050.67 273.302C2054.81 239.607 2068.79 214.778 2092.63 198.817C2116.47 182.66 2146.22 174.581 2181.88 174.581ZM2502.89 174.581C2535.79 174.581 2564.45 183.153 2588.89 200.296C2613.51 217.242 2629.77 241.775 2637.65 273.894L2590.36 279.805C2583.27 260.888 2571.84 246.306 2556.08 236.06C2540.52 225.616 2522.69 220.395 2502.59 220.395C2479.74 220.395 2460.92 225.616 2446.14 236.06C2431.56 246.503 2420.63 260.986 2413.34 279.509C2406.25 297.834 2402.6 319.017 2402.4 343.057C2402.6 379.905 2411.07 409.561 2427.82 432.024C2444.57 454.488 2469.49 465.72 2502.59 465.72C2523.67 465.72 2541.5 460.892 2556.08 451.236C2570.66 441.384 2581.69 427.196 2589.18 408.674L2637.65 414.881C2627.8 447.197 2610.85 471.434 2586.82 487.592C2562.98 503.553 2534.9 511.533 2502.59 511.533C2470.28 511.533 2442.89 504.341 2420.43 489.956C2397.97 475.375 2380.93 455.473 2369.31 430.251C2357.68 404.832 2351.67 375.767 2351.28 343.057C2351.67 309.756 2357.78 280.494 2369.6 255.272C2381.62 229.853 2398.86 210.05 2421.32 195.862C2443.78 181.675 2470.97 174.581 2502.89 174.581ZM942.721 184.542C962.62 184.542 979.762 187.597 994.144 193.705C1008.72 199.814 1020.84 208.09 1030.49 218.533C1040.34 228.977 1048.13 240.8 1053.84 254.002C1059.75 267.007 1063.99 280.603 1066.55 294.79C1069.11 308.78 1070.39 322.377 1070.39 335.579V511.53H1021.92V350.358C1021.92 334.003 1020.35 318.633 1017.19 304.249C1014.24 289.667 1009.22 276.859 1002.12 265.824C995.227 254.593 986.065 245.824 974.638 239.519C963.211 233.213 949.025 230.061 932.082 230.061C917.896 230.061 905.189 232.523 893.958 237.449C882.728 242.375 873.172 249.568 865.292 259.026C857.411 268.485 851.402 280.209 847.264 294.199C843.127 308.19 841.058 324.249 841.058 342.378L840.762 342.271V511.53H792.59V192.522H835.738V214.1C835.738 220.208 834.556 226.809 832.192 233.902C831.28 236.803 830.245 239.633 829.089 242.394C839.439 225.311 856.647 211.616 872.975 201.98C892.874 190.355 916.123 184.542 942.721 184.542ZM1829.72 236.741L1780.37 236.445C1759.09 236.445 1743.23 243.343 1732.79 257.136C1722.15 273.491 1717.02 302.063 1717.42 342.852L1717.12 511.53H1668.95V192.405H1712.1V207.775C1712.1 223.685 1709.76 230.366 1705.08 244.348C1710.31 230.002 1715.2 223.896 1720.09 219.006C1728.16 210.939 1731.52 207.892 1740.78 202.749C1754.08 195.36 1758.51 192.405 1783.32 192.11H1829.72V236.741ZM2029.01 236.741L1979.66 236.445C1958.38 236.445 1942.52 243.343 1932.08 257.136C1921.44 273.491 1916.31 302.063 1916.71 342.852L1916.41 511.53H1868.24V192.405H1911.39V207.775C1911.39 223.685 1909.05 230.366 1904.37 244.348C1909.6 230.002 1914.49 223.896 1919.38 219.006C1927.45 210.94 1930.81 207.892 1940.07 202.749C1953.37 195.36 1957.8 192.405 1982.61 192.11H2029.01V236.741ZM2262.46 350.727C2251.72 350.612 2240.82 350.616 2229.76 350.742C2212.62 350.742 2196.07 351.136 2180.11 351.924C2164.35 352.515 2150.16 354.782 2137.56 358.723C2128.69 361.678 2120.41 365.619 2112.73 370.545C2105.24 375.274 2099.04 381.481 2094.11 389.166C2089.19 396.654 2086.72 405.719 2086.72 416.359C2086.72 425.423 2088.99 434.093 2093.52 442.369C2098.05 450.645 2105.24 457.443 2115.09 462.764C2124.95 468.084 2137.95 470.744 2154.1 470.744C2173.81 470.744 2190.85 467.296 2205.23 460.399C2219.81 453.306 2231.53 443.847 2240.4 432.024C2249.27 420.004 2254.98 406.605 2257.54 391.826C2260.3 381.777 2261.78 372.614 2261.97 364.338C2262.21 359.458 2262.37 354.921 2262.46 350.727ZM1475.44 218.03C1441.95 218.03 1416.43 228.868 1398.9 250.543C1383.16 269.825 1374.48 296.652 1372.87 331.021C1374.67 329.251 1387.77 317.047 1408.65 317.047H1571.04C1568 287.674 1559.97 264.816 1546.96 248.474C1530.81 228.178 1506.97 218.03 1475.44 218.03Z" fill="#FFFEEA"/>
<path d="M337.05 0V112.616C337.05 135.926 330.092 160.755 317.783 179.408C339.376 163.507 364.693 149.768 392.127 144.941L555.495 116.197L573.042 215.493L401.262 244.226C418.501 252.651 434.513 263.945 448.536 277.937L565.836 394.981L494.383 466.277L312.437 281.645C328.318 307.901 337.049 338.315 337.05 369.842V597H235.99V484.384C235.99 461.074 242.948 436.245 255.256 417.592C233.663 433.493 208.349 447.232 180.916 452.059L17.547 480.803L0 381.507L171.78 352.774C154.541 344.349 138.529 333.055 124.507 319.063L7.2063 202.019L78.659 130.723L260.603 315.355C244.721 289.1 235.99 258.685 235.99 227.158V0H337.05Z" fill="#FFFEEA"/>
</g>
<defs>
<clipPath id="clip0_1229_820">
<rect width="2857" height="597" fill="white"/>
</clipPath>
</defs>
</svg>
