<svg width="155" height="37" viewBox="0 0 155 37" fill="none" xmlns="http://www.w3.org/2000/svg">
<path fill-rule="evenodd" clip-rule="evenodd" d="M15.2538 28.2206C14.4213 29.4193 13.948 30.8656 13.948 32.3897V36.9784H18.4892V36.9782H20.4353V22.9727C20.4353 20.9183 19.8403 18.9408 18.7637 17.2577L29.9633 28.9097L34.3823 24.4907L27.0573 17.1658C25.6656 15.774 23.9664 14.7941 22.1391 14.2722H34.3828V8.75794H19.129C19.9616 7.55924 20.4349 6.11287 20.4349 4.58878V5.34058e-05H15.8937V0.000286102H13.9478V14.0058C13.9478 16.0605 14.5429 18.0382 15.6197 19.7213L4.41956 8.06884L0.000598907 12.4878L7.32554 19.8127C8.71725 21.2044 10.4164 22.1844 12.2437 22.7062H1.90735e-05V28.2206H15.2538Z" fill="#FFFEEA"/>
<path d="M140.925 28.3083C139.683 29.1397 138.22 29.5553 136.537 29.5553C134.854 29.5553 133.427 29.1807 132.257 28.4315C131.087 27.672 130.199 26.6353 129.594 25.3216C128.988 23.9975 128.675 22.4836 128.655 20.7798C128.675 19.0453 128.993 17.5211 129.609 16.2073C130.235 14.8833 131.133 13.8518 132.303 13.1128C133.473 12.3738 134.89 12.0043 136.552 12.0043C138.267 12.0043 139.76 12.4508 141.033 13.3438C142.316 14.2264 143.162 15.5043 143.573 17.1773L141.11 17.4852C140.74 16.4999 140.145 15.7403 139.324 15.2066C138.513 14.6626 137.584 14.3907 136.537 14.3907C135.347 14.3907 134.366 14.6626 133.597 15.2066C132.837 15.7506 132.267 16.505 131.888 17.4698C131.518 18.4243 131.328 19.5277 131.318 20.7798C131.328 22.6992 131.77 24.2439 132.642 25.4139C133.514 26.584 134.813 27.169 136.537 27.169C137.635 27.169 138.564 26.9176 139.324 26.4146C140.083 25.9015 140.658 25.1625 141.048 24.1977L143.573 24.521C143.06 26.2042 142.177 27.4667 140.925 28.3083Z" fill="#FFFEEA"/>
<path d="M122.324 28.6316C120.883 29.416 119.676 29.5553 118.044 29.5553C116.792 29.5553 115.745 29.3295 114.903 28.8779C114.062 28.4263 113.431 27.8259 113.01 27.0767C112.589 26.3171 112.378 25.496 112.378 24.6134C112.378 23.7204 112.543 22.9506 112.871 22.304C113.21 21.6574 113.687 21.1083 114.303 20.6567C114.919 20.1948 115.642 19.8458 116.474 19.6098C117.51 19.3224 118.542 19.1684 119.568 19.1479C120.605 19.1274 121.559 19.1171 122.432 19.1171C123.304 19.1171 124.156 19.1222 124.988 19.1325L124.048 19.348C124.079 17.5211 123.771 16.233 123.125 15.4837C122.488 14.7242 121.375 14.3445 119.784 14.3445C118.716 14.3445 117.798 14.5908 117.028 15.0835C116.258 15.5659 115.776 16.3254 115.581 17.362L112.994 17.1465C113.21 15.3914 113.939 14.0981 115.18 13.2668C116.422 12.4251 117.972 12.0043 119.83 12.0043C121.339 12.0043 122.627 12.2815 123.694 12.8357C124.772 13.3899 125.542 14.2059 126.004 15.2836C126.219 15.7865 126.358 16.3356 126.419 16.9309C126.481 17.5262 126.512 18.1472 126.512 18.7938V29.0935H124.295V28.3699C124.295 27.7849 124.37 27.5203 124.409 27.323C124.463 27.0468 124.563 26.6302 124.68 26.3685C123.793 27.7079 122.7 28.4271 122.324 28.6316ZM116.351 27.0151C116.864 27.2922 117.541 27.4308 118.383 27.4308C119.409 27.4308 120.297 27.2511 121.046 26.8919C121.806 26.5224 122.416 26.0298 122.878 25.4139C123.34 24.7878 123.638 24.0899 123.771 23.3201C123.915 22.7967 123.992 22.3194 124.002 21.8883C124.023 21.4572 124.033 21.0775 124.033 20.749L124.972 21.1955C124.11 21.175 123.227 21.1699 122.324 21.1801C121.431 21.1801 120.569 21.2007 119.738 21.2417C118.916 21.2725 118.177 21.3905 117.521 21.5958C117.059 21.7498 116.628 21.955 116.227 22.2116C115.837 22.458 115.514 22.7813 115.257 23.1816C115.001 23.5716 114.873 24.0437 114.873 24.598C114.873 25.0701 114.991 25.5217 115.227 25.9528C115.463 26.3839 115.837 26.7379 116.351 27.0151Z" fill="#FFFEEA"/>
<path d="M95.6336 20.7693L95.6182 29.5553H93.1087V12.9329H95.3565V13.7335C95.3565 14.7393 95.1769 15.037 94.8177 16.166C95.1564 15.0267 95.465 14.6263 95.7729 14.3184C96.1931 13.8983 96.3684 13.7396 96.8506 13.4717C97.5434 13.0868 97.7743 12.9328 99.0668 12.9175H101.484V15.2422L98.9129 15.2268C97.8044 15.2268 96.9782 15.5861 96.4342 16.3045C95.8799 17.1564 95.6131 18.6447 95.6336 20.7693Z" fill="#FFFEEA"/>
<path d="M106.016 20.7693L106 29.5553H103.491V12.9329H105.739V13.7335C105.739 14.7393 105.559 15.037 105.2 16.166C105.538 15.0267 105.847 14.6263 106.155 14.3184C106.575 13.8983 106.75 13.7396 107.233 13.4717C107.925 13.0868 108.156 12.9328 109.449 12.9175H111.866V15.2422L109.295 15.2268C108.186 15.2268 107.36 15.5861 106.816 16.3045C106.262 17.1564 105.995 18.6447 106.016 20.7693Z" fill="#FFFEEA"/>
<path d="M87.5081 28.2775C86.1532 29.1294 84.665 29.5553 83.0433 29.5553C81.4217 29.5553 80.0104 29.1961 78.8095 28.4777C77.6087 27.7592 76.6747 26.7482 76.0075 25.4447C75.3404 24.1412 75.0068 22.6171 75.0068 20.8722C75.0068 19.0555 75.3352 17.4852 75.9921 16.1612C76.649 14.8269 77.5676 13.8005 78.7479 13.082C79.9385 12.3636 81.3395 12.0043 82.951 12.0043C84.6034 12.0043 86.0095 12.3841 87.1694 13.1436C88.3394 13.9031 89.2221 14.9911 89.8174 16.4075C90.4127 17.8239 90.6744 19.5174 90.6026 21.488H88.0777V20.5951C88.0366 18.491 87.5953 16.9104 86.7537 15.8532C85.912 14.7961 84.6701 14.2675 83.0279 14.2675C81.2831 14.2675 79.9539 14.832 79.0405 15.961C78.127 17.0798 77.6703 18.686 77.6703 20.7798C77.6703 22.8121 78.127 24.3875 79.0405 25.5063C79.9539 26.6148 81.2574 27.169 82.951 27.169C84.0902 27.169 85.0858 26.9073 85.9377 26.3838C86.7896 25.8501 87.4567 25.0906 87.9391 24.1053L90.4024 24.4594C89.8277 26.1427 88.8629 27.4154 87.5081 28.2775ZM89.2939 19.425V21.488H76.8081V19.425H77.5625L77.5163 20.4719L77.6736 20.164C77.6736 20.164 78.3758 19.425 79.5485 19.425C80.7212 19.425 89.2939 19.425 89.2939 19.425Z" fill="#FFFEEA"/>
<path d="M74.1827 27.2408V29.4424C73.2179 29.545 72.2685 29.5809 71.3345 29.5502C70.4005 29.5296 69.564 29.35 68.825 29.0113C68.0963 28.6623 67.5472 28.1184 67.1777 27.3794C66.8595 26.743 66.685 26.1015 66.6542 25.4549C66.6337 24.798 66.6234 24.0488 66.6234 23.2072V8.11944H69.1175V14.9551H67.8397L68.6095 15.0937C68.6095 15.0937 69.1175 15.6633 69.1175 16.8488C69.1175 18.0342 69.1175 23.1148 69.1175 23.1148C69.1175 23.8025 69.1278 24.3824 69.1483 24.8545C69.1689 25.3266 69.2715 25.7423 69.4562 26.1015C69.8257 26.7892 70.4108 27.1844 71.2113 27.287C72.0222 27.3794 73.0126 27.364 74.1827 27.2408ZM74.1827 12.7381V15.0937H63.1594V12.7381H74.1827Z" fill="#FFFEEA"/>
<path d="M155 27.2408V29.4424C154.035 29.545 153.086 29.5809 152.152 29.5502C151.218 29.5296 150.381 29.35 149.642 29.0113C148.913 28.6623 148.364 28.1184 147.995 27.3794C147.677 26.743 147.502 26.1015 147.471 25.4549C147.451 24.798 147.441 24.0488 147.441 23.2072V8.11944H149.935V14.9551H148.657L149.427 15.0937C149.427 15.0937 149.935 15.6633 149.935 16.8488C149.935 18.0342 149.935 23.1148 149.935 23.1148C149.935 23.8025 149.945 24.3824 149.965 24.8545C149.986 25.3266 150.089 25.7423 150.273 26.1015C150.643 26.7892 151.228 27.1844 152.029 27.287C152.839 27.3794 153.83 27.364 155 27.2408ZM155 12.7381V15.0937H143.977V12.7381H155Z" fill="#FFFEEA"/>
<path d="M61.927 20.3903V29.5551H59.4021V21.16C59.4021 20.3081 59.32 19.5076 59.1558 18.7583C59.0018 17.9988 58.7401 17.3317 58.3706 16.7569C58.0114 16.1718 57.5341 15.7151 56.9388 15.3867C56.3435 15.0582 55.6045 14.894 54.7218 14.894C53.9828 14.894 53.3208 15.0223 52.7358 15.2789C52.1508 15.5355 51.653 15.9101 51.2424 16.4028C50.8319 16.8954 50.5188 17.5061 50.3033 18.2349C50.0877 18.9636 49.98 19.8001 49.98 20.7444L48.7483 20.2979C48.7483 18.6454 48.62 17.2701 49.0716 16.1103C49.5232 14.9505 50.6163 14.037 51.6427 13.4314C52.6793 12.8259 53.8905 12.5231 55.2761 12.5231C56.3127 12.5231 57.2057 12.6822 57.9549 13.0003C58.7144 13.3185 59.3457 13.7496 59.8486 14.2936C60.3618 14.8376 60.7672 15.4534 61.0648 16.1411C61.3727 16.8185 61.5934 17.5267 61.7268 18.2657C61.8603 18.9944 61.927 19.7026 61.927 20.3903ZM49.9646 16.1103V29.5551H47.4551V12.9388H49.7029V14.0626C49.7029 14.3808 49.6413 14.7247 49.5181 15.0942C49.4052 15.4534 49.2564 15.7921 49.0716 16.1103H49.9646Z" fill="#FFFEEA"/>
<path d="M43.7667 7.39017V29.5599H41.2726V7.39017H43.7667Z" fill="#FFFEEA"/>
</svg>
