<svg width="216" height="225" viewBox="0 0 216 225" fill="none" xmlns="http://www.w3.org/2000/svg">
<path d="M127.046 0V42.4434C127.046 51.2283 124.423 60.5862 119.784 67.6162C127.923 61.6231 137.466 56.4451 147.806 54.626L209.386 43.793L216 81.2158L151.25 92.0449C157.748 95.2201 163.783 99.4768 169.069 104.75L213.284 148.862L186.351 175.732L117.768 106.147C123.755 116.043 127.046 127.505 127.046 139.388V225H88.953V182.557C88.953 173.772 91.5757 164.414 96.2151 157.384C88.076 163.377 78.5343 168.555 68.1936 170.374L6.61409 181.207L0 143.784L64.75 132.955C58.252 129.78 52.2167 125.523 46.931 120.25L2.71631 76.1377L29.6494 49.2676L98.2306 118.853C92.2441 108.957 88.9531 97.4945 88.953 85.6123V0H127.046Z" fill="#06070A"/>
</svg>
